<?xml version="1.0" standalone="no"?>
<!DOCTYPE svg PUBLIC "-//W3C//DTD SVG 1.1//EN" "http://www.w3.org/Graphics/SVG/1.1/DTD/svg11.dtd" >
<svg xmlns="http://www.w3.org/2000/svg">
<metadata>Generated by IcoMoon</metadata>
<defs>
<font id="icomoon" horiz-adv-x="1024">
<font-face units-per-em="1024" ascent="960" descent="-64" />
<missing-glyph horiz-adv-x="1024" />
<glyph unicode="&#x20;" horiz-adv-x="512" d="" />
<glyph unicode="&#xe900;" glyph-name="camera" d="M989.867 744.767h-245.885l-64.569 137.751c-5.621 11.981-17.67 19.649-30.913 19.649h-272.998c-13.244 0-25.293-7.669-30.913-19.649l-64.58-137.751h-245.874c-18.853 0-34.133-15.292-34.133-34.133v-682.667c0-18.864 15.28-34.133 34.133-34.133h955.733c18.853 0 34.133 15.269 34.133 34.133v682.667c0 18.842-15.28 34.133-34.133 34.133zM397.198 833.9h229.604l41.779-89.134h-313.173l41.791 89.134zM955.733 62.1h-887.467v614.4h653.266c0.262-0.023 0.523-0.068 0.785-0.068 0.171 0 0.341 0.068 0.512 0.068h232.903v-614.4zM512 574.1c-112.924 0-204.8-91.887-204.8-204.8 0-112.936 91.876-204.8 204.8-204.8s204.8 91.864 204.8 204.8c0 112.913-91.876 204.8-204.8 204.8zM512 232.767c-75.287 0-136.533 61.247-136.533 136.533s61.247 136.533 136.533 136.533 136.533-61.247 136.533-136.533-61.247-136.533-136.533-136.533z" />
<glyph unicode="&#xe901;" glyph-name="copy" d="M989.867-64h-728.178c-18.853 0-34.133 15.28-34.133 34.133v728.178c0 18.853 15.28 34.133 34.133 34.133h728.178c18.853 0 34.133-15.28 34.133-34.133v-728.178c0-18.864-15.28-34.133-34.133-34.133zM295.822 4.267h659.911v659.911h-659.911v-659.911zM170.655 197.689c0 18.842-15.28 34.133-34.133 34.133h-68.255v659.911h659.911v-68.267c0-18.853 15.292-34.133 34.133-34.133 18.853 0 34.133 15.28 34.133 34.133v102.4c0 18.853-15.28 34.133-34.133 34.133h-728.178c-18.853 0-34.133-15.292-34.133-34.133v-728.178c0-18.842 15.28-34.133 34.133-34.133h102.389c18.853 0 34.133 15.28 34.133 34.133zM853.367 516.267c0 18.853-15.292 34.133-34.133 34.133h-375.467c-18.853 0-34.133-15.28-34.133-34.133s15.28-34.133 34.133-34.133h375.467c18.853 0 34.133 15.28 34.133 34.133zM853.367 334.222c0 18.842-15.292 34.133-34.133 34.133h-375.467c-18.853 0-34.133-15.292-34.133-34.133s15.28-34.133 34.133-34.133h375.467c18.853 0 34.133 15.28 34.133 34.133zM853.367 152.178c0 18.842-15.292 34.133-34.133 34.133h-375.467c-18.853 0-34.133-15.292-34.133-34.133s15.28-34.133 34.133-34.133h375.467c18.853 0 34.133 15.28 34.133 34.133z" />
<glyph unicode="&#xe902;" glyph-name="history" d="M557.761 697.173c-18.842 0-34.122-15.28-34.122-34.122v-250.163c0-0.546 0.137-1.047 0.159-1.593 0.057-1.206 0.182-2.401 0.364-3.595 0.171-1.081 0.364-2.139 0.637-3.163 0.262-1.070 0.603-2.105 0.967-3.129 0.375-1.058 0.774-2.094 1.252-3.095 0.466-0.967 0.99-1.9 1.547-2.833 0.569-0.944 1.149-1.855 1.786-2.731 0.66-0.899 1.365-1.729 2.128-2.571 0.728-0.819 1.49-1.616 2.31-2.355 0.774-0.717 1.604-1.388 2.469-2.037 0.967-0.74 1.98-1.422 3.026-2.059 0.455-0.262 0.831-0.626 1.308-0.876l171.622-92.388c5.143-2.765 10.672-4.085 16.145-4.085 12.14 0 23.905 6.508 30.071 17.954 8.92 16.589 2.719 37.274-13.881 46.217l-153.68 82.728v229.774c0.011 18.853-15.269 34.122-34.111 34.122zM569.128 902.861c-217.486 0-405.276-154.749-446.521-367.923-4.881-25.099-7.509-50.825-8.090-76.584l-55.319 60.097c-12.754 13.858-34.338 14.757-48.196 1.98-13.87-12.754-14.757-34.338-1.991-48.196l109.921-119.398c6.713-7.305 15.883-11.014 25.111-11.014 8.021 0 16.065 2.81 22.539 8.522l135.509 119.387c14.131 12.459 15.497 34.008 3.038 48.151-12.459 14.12-33.997 15.474-48.151 3.038l-74.297-65.468c0.432 22.38 2.674 44.692 6.906 66.48 35.055 181.191 194.674 312.695 379.54 312.695 213.185 0 386.628-173.443 386.628-386.628s-173.431-386.628-386.628-386.628c-143.383 0-274.295 78.757-341.663 205.528-8.841 16.634-29.491 22.949-46.137 14.108-16.646-8.829-22.96-29.491-14.12-46.137 79.235-149.106 233.244-241.732 401.92-241.732 250.812 0 454.872 204.049 454.872 454.861s-204.060 454.861-454.872 454.861z" />
<glyph unicode="&#xe903;" glyph-name="insight" d="M989.867-64h-955.733c-18.853 0-34.133 15.292-34.133 34.133v955.733c0 18.842 15.28 34.133 34.133 34.133s34.133-15.292 34.133-34.133v-921.6h921.6c18.842 0 34.133-15.292 34.133-34.133s-15.292-34.133-34.133-34.133zM261.7 140.8v227.556c0 18.853-15.28 34.133-34.133 34.133s-34.133-15.28-34.133-34.133v-227.556c0-18.842 15.28-34.133 34.133-34.133s34.133 15.292 34.133 34.133zM466.489 140.8v455.111c0 18.853-15.28 34.133-34.133 34.133s-34.133-15.28-34.133-34.133v-455.111c0-18.842 15.28-34.133 34.133-34.133s34.133 15.292 34.133 34.133zM671.289 140.8v341.333c0 18.853-15.292 34.133-34.133 34.133s-34.133-15.28-34.133-34.133v-341.333c0-18.842 15.292-34.133 34.133-34.133s34.133 15.292 34.133 34.133zM876.089 140.8v568.889c0 18.853-15.292 34.133-34.133 34.133s-34.133-15.28-34.133-34.133v-568.889c0-18.842 15.292-34.133 34.133-34.133s34.133 15.292 34.133 34.133z" />
<glyph unicode="&#xe904;" glyph-name="new" d="M733.867 448c0-18.842-15.28-34.133-34.133-34.133h-153.6v-153.6c0-18.842-15.28-34.133-34.133-34.133s-34.133 15.292-34.133 34.133v153.6h-153.6c-18.853 0-34.133 15.292-34.133 34.133 0 18.853 15.28 34.133 34.133 34.133h153.6v153.6c0 18.853 15.28 34.133 34.133 34.133s34.133-15.28 34.133-34.133v-153.6h153.6c18.853 0 34.133-15.28 34.133-34.133zM512 891.733c-244.679 0-443.733-199.054-443.733-443.733s199.054-443.733 443.733-443.733 443.733 199.054 443.733 443.733-199.054 443.733-443.733 443.733zM512 960c282.783 0 512-229.228 512-512s-229.217-512-512-512-512 229.228-512 512 229.217 512 512 512v0z" />
<glyph unicode="&#xe905;" glyph-name="notice" d="M938.667 296.118h-57.333c-12.629 0-18.466 3.971-22.141 7.43-22.858 21.538-22.312 85.959-21.948 128.592 0.034 5.962 0.091 11.753 0.091 17.283v149.572c0 145.874-110.467 268.049-257.297 297.381-2.401 35.533-31.903 63.625-68.039 63.625s-65.638-28.092-68.028-63.625c-146.842-29.332-257.308-151.506-257.308-297.381v-149.572c0-5.518 0.057-11.31 0.091-17.283 0.364-42.633 0.91-107.054-21.948-128.592-3.675-3.47-9.512-7.43-22.141-7.43h-57.333c-47.058 0-85.333-35.794-85.333-79.77v-79.781c0-16.509 14.325-29.901 31.994-29.901h309.339c0-94.254 76.413-170.667 170.667-170.667s170.667 76.413 170.667 170.667h309.339c17.67 0 31.994 13.392 31.994 29.901v79.781c0 43.975-38.275 79.77-85.333 79.77zM512 4.267c-56.468 0-102.4 45.932-102.4 102.389h204.8c0-56.445-45.932-102.389-102.4-102.389zM960 166.491h-896v49.857c0 11.002 9.58 19.934 21.333 19.934h57.333c26.761 0 50.13 8.693 67.573 25.134 41.631 39.219 41.006 112.401 40.516 171.19-0.034 5.814-0.091 11.435-0.091 16.816v149.572c0 134.702 117.237 244.292 261.336 244.292s261.336-109.591 261.336-244.292v-149.572c0-5.382-0.057-11.002-0.091-16.816-0.501-58.789-1.126-131.971 40.516-171.19 17.442-16.441 40.823-25.134 67.573-25.134h57.333c11.753 0 21.333-8.932 21.333-19.934v-49.857z" />
<glyph unicode="&#xe906;" glyph-name="profile" d="M655.758 439.091c80.6 49.152 134.497 138.377 134.497 240.299 0 154.977-124.564 280.61-278.255 280.61-153.68 0-278.255-125.633-278.255-280.61 0-101.922 53.885-191.147 134.497-240.299-225.098-51.735-368.242-227.419-368.242-469.402 0-18.603 14.95-33.69 33.394-33.69s33.394 15.087 33.394 33.69c0 249.924 178.916 417.86 445.212 417.86 266.286 0 445.224-167.936 445.224-417.86 0-18.603 14.939-33.69 33.394-33.69s33.382 15.087 33.382 33.69c0 241.983-143.144 417.667-368.242 469.402zM300.533 679.39c0 117.589 94.857 213.265 211.467 213.265s211.467-95.676 211.467-213.265-94.857-213.276-211.467-213.276-211.467 95.676-211.467 213.276z" />
<glyph unicode="&#xe907;" glyph-name="profit" d="M512 960c-282.772 0-512-101.285-512-226.293v-571.403c0-125.008 229.228-226.304 512-226.304s512 101.296 512 226.304v571.403c0 125.008-229.228 226.293-512 226.293zM177.687 831.704c86.881 38.4 208.737 60.416 334.313 60.416s247.433-22.027 334.313-60.427c66.469-29.366 109.42-67.834 109.42-97.985s-42.951-68.597-109.42-97.974c-86.881-38.4-208.737-60.427-334.313-60.427s-247.433 22.027-334.313 60.427c-66.469 29.377-109.42 67.834-109.42 97.974s42.951 68.619 109.42 97.997zM846.313 64.307c-86.881-38.4-208.737-60.416-334.313-60.416s-247.433 22.027-334.313 60.427c-66.469 29.366-109.42 67.834-109.42 97.985v77.619c88.439-67.789 253.963-113.448 443.733-113.448s355.294 45.659 443.733 113.448v-77.619c0-30.151-42.951-68.619-109.42-97.997zM846.313 254.783c-86.881-38.4-208.737-60.416-334.313-60.416s-247.433 22.016-334.313 60.416c-66.48 29.377-109.42 67.834-109.42 97.985v77.631c88.439-67.789 253.963-113.448 443.733-113.448s355.294 45.659 443.733 113.448v-77.631c0-30.151-42.94-68.608-109.42-97.985zM846.313 445.258c-86.881-38.389-208.737-60.416-334.313-60.416s-247.433 22.027-334.313 60.416c-66.48 29.389-109.42 67.846-109.42 97.985v77.619c88.439-67.789 253.963-113.448 443.733-113.448s355.294 45.659 443.733 113.448v-77.619c0-30.14-42.94-68.597-109.42-97.985z" />
<glyph unicode="&#xe908;" glyph-name="public" d="M512 960c-282.783 0-512-229.228-512-512s229.217-512 512-512 512 229.228 512 512-229.217 512-512 512zM68.847 425.244h159.471c2.719-63.090 16.464-124.53 40.198-181.669h-150.164c-28.615 54.898-46.194 116.417-49.505 181.669zM534.756 698.334v158.834c62.692-41.188 114.267-95.846 151.814-158.834h-151.814zM710.519 652.823c26.214-56.639 41.722-118.352 44.726-182.067h-220.49v182.067h175.764zM489.244 698.334h-146.728c36.545 61.315 86.278 114.847 146.728 155.637v-155.637zM489.244 652.823v-182.067h-215.415c3.004 63.716 18.512 125.417 44.726 182.067h170.689zM228.318 470.756h-159.471c3.322 65.411 20.969 127.078 49.721 182.067h150.073c-23.825-57.219-37.592-118.807-40.323-182.067zM273.829 425.244h215.415v-181.669h-170.849c-26.112 56.559-41.574 118.147-44.567 181.669zM489.244 198.076v-156.012c-60.541 40.88-110.364 94.527-146.944 156.012h146.944zM534.756 198.076h152.018c-37.569-63.169-89.213-117.953-152.018-159.221v159.221zM534.756 243.587v181.658h220.49c-2.992-63.534-18.443-125.11-44.555-181.669h-175.935zM800.757 425.244h154.396c-3.311-65.252-20.89-126.783-49.516-181.669h-145.067c23.734 57.139 37.478 118.591 40.186 181.669zM800.757 470.756c-2.719 63.26-16.486 124.848-40.311 182.067h144.998c28.729-54.989 46.387-116.645 49.71-182.067h-154.396zM878.137 698.334h-139.48c-39.697 74.786-96.836 140.151-167.788 189.383 127.329-16.964 237.75-88.030 307.268-189.383zM459.298 888.502c-71.475-49.323-128.956-114.995-168.869-190.168h-144.566c70.622 102.969 183.501 174.717 313.435 190.168zM145.579 198.076h144.668c39.902-75.31 97.417-141.153 168.96-190.544-130.071 15.497-243.029 87.37-313.628 190.544zM570.96 8.306c71.020 49.311 128.182 114.847 167.879 189.77h139.594c-69.484-101.535-180.008-172.76-307.473-189.77z" />
<glyph unicode="&#xe909;" glyph-name="quiz" d="M990.709 501.897l-103.845 51.928c-22.153 91.557-72.977 174.569-145.294 236.282-81.249 69.382-184.889 107.588-291.863 107.588-247.979 0-449.707-201.728-449.707-449.673 0-247.979 201.728-449.707 449.707-449.707 106.974 0 210.637 38.207 291.908 107.6 72.272 61.724 123.096 144.737 145.249 236.282l103.845 51.951c20.423 10.206 33.291 31.050 33.291 53.874 0 22.812-12.891 43.668-33.291 53.874zM833.775 382.999c-30.982-184.138-191.113-324.46-384.057-324.46-215.097 0-389.473 174.319-389.473 389.473 0 215.086 174.319 389.439 389.473 389.439 192.91 0 353.087-140.277 384.057-324.426l130.002-65.013-130.002-65.013zM610.372 276.628c-10.377-3.447-24.223-5.928-40.050-5.928-33.109 0-66.185 11.366-83.001 39.037 72.624 18.751 120.047 85.982 120.047 185.776 0 118.579-66.685 188.245-163.521 188.245-96.825 0-163.544-69.188-163.544-188.245 0-104.243 51.883-173.443 129.934-188.245 25.213-55.342 77.073-95.346 151.7-95.346 26.67 0 48.89 4.949 61.269 10.866l-12.834 53.84zM354.918 495.502c0 78.552 34.588 125.508 88.929 125.508s88.917-46.945 88.917-125.508c0-82.011-34.577-131.436-88.917-131.436s-88.929 49.425-88.929 131.436z" />
<glyph unicode="&#xe90a;" glyph-name="return" d="M761.321 598.255h-645.78l164.705 167.378c13.221 13.437 13.062 35.044-0.353 48.265-13.403 13.232-34.987 13.073-48.208-0.353l-221.867-225.462c-13.073-13.289-13.073-34.623 0-47.912l223.164-226.748c6.667-6.781 15.474-10.183 24.28-10.183 8.647 0 17.294 3.265 23.927 9.819 13.414 13.232 13.574 34.839 0.353 48.265l-166.002 168.653h645.769c107.247 0 194.503-87.347 194.503-194.708s-87.256-194.719-194.503-194.719h-215.177c-18.83 0-34.088-15.28-34.088-34.133s15.258-34.133 34.088-34.133h215.188c144.839 0 262.679 117.976 262.679 262.986s-117.84 262.986-262.679 262.986z" />
<glyph unicode="&#xe90b;" glyph-name="search" d="M1014.033-6.076l-217.998 217.498c69.006 79.371 110.865 182.864 110.865 296.198 0 249.867-202.991 452.38-453.45 452.38s-453.45-202.513-453.45-452.38c0-249.856 202.991-452.38 453.45-452.38 112.356 0 215.108 40.858 294.32 108.373l218.18-217.668c6.633-6.633 15.337-9.944 24.041-9.944s17.397 3.311 24.041 9.944c13.289 13.232 13.289 34.725 0 47.98zM68.016 507.62c0 212.036 172.908 384.523 385.434 384.523s385.422-172.498 385.422-384.523c0-212.014-172.897-384.523-385.422-384.523s-385.434 172.498-385.434 384.523z" />
<glyph unicode="&#xe90c;" glyph-name="secret" d="M512 891.733c244.679 0 443.733-199.054 443.733-443.733s-199.054-443.733-443.733-443.733-443.733 199.054-443.733 443.733 199.054 443.733 443.733 443.733zM512 960c-282.783 0-512-229.217-512-512 0-282.761 229.217-512 512-512s512 229.239 512 512c0 282.783-229.217 512-512 512v0zM563.234 462.052c27.273 17.101 45.477 47.343 45.477 81.92 0 53.396-43.315 96.711-96.711 96.711-53.419 0-96.711-43.315-96.711-96.711 0-34.805 18.432-65.206 46-82.25l-38.741-199.908c-1.934-10.001 0.694-20.343 7.179-28.206 6.485-7.851 16.145-12.413 26.328-12.413h113.778c0.080 0 0.148 0 0.239 0 18.842 0 34.133 15.28 34.133 34.133 0 3.686-0.592 7.236-1.661 10.57l-39.31 196.153z" />
<glyph unicode="&#xe90d;" glyph-name="setting" d="M605.23-64h-186.459c-16.338 0-30.049 12.311-31.801 28.57-8.112 75.014-68.153 131.573-139.662 131.573-29.514 0-57.685-9.466-81.442-27.375-7.248-5.45-16.441-7.6-25.361-5.848-8.909 1.718-16.668 7.145-21.333 14.916l-114.608 190.612c-4.688 7.828-5.837 17.283-3.118 25.987 2.697 8.715 9.011 15.861 17.306 19.627 50.881 23.131 84.275 75.89 85.083 134.417-0.796 57.64-34.202 110.421-85.083 133.552-8.294 3.766-14.609 10.911-17.306 19.627-2.708 8.715-1.57 18.159 3.118 25.975l114.597 190.68c4.665 7.771 12.425 13.198 21.322 14.928s18.125-0.387 25.361-5.848c23.893-18.022 52.053-27.534 81.442-27.534 71.509 0 131.55 56.582 139.662 131.573 1.775 16.259 15.485 28.57 31.824 28.57h186.47c16.338 0 30.060-12.311 31.801-28.57 8.112-75.002 68.153-131.573 139.662-131.573 29.514 0 57.663 9.466 81.442 27.375 7.248 5.461 16.452 7.612 25.361 5.871 8.897-1.729 16.657-7.157 21.322-14.928l114.597-190.601c4.688-7.828 5.837-17.271 3.118-25.975-2.697-8.715-9.011-15.872-17.306-19.638-50.881-23.131-84.275-75.878-85.083-134.394 0.796-57.674 34.202-110.455 85.083-133.586 8.294-3.766 14.609-10.911 17.306-19.627 2.708-8.715 1.57-18.159-3.118-25.975l-114.597-190.692c-4.665-7.771-12.425-13.198-21.322-14.928-8.909-1.752-18.125 0.398-25.361 5.848-23.893 18.022-52.053 27.534-81.442 27.534-71.509 0-131.55-56.582-139.662-131.573-1.752-16.259-15.474-28.57-31.812-28.57zM445.599 0h132.801c22.619 93.059 103.481 160.142 198.303 160.142 31.596 0 62.18-7.407 90.010-21.641l81.010 134.804c-55.592 38.366-90.578 103.447-91.557 174.251 0.978 71.521 35.954 136.704 91.557 175.070l-81.021 134.758c-27.773-14.143-58.357-21.527-89.998-21.527-94.822 0-175.673 67.083-198.303 160.142h-132.801c-22.619-93.059-103.481-160.142-198.303-160.142-31.596 0-62.18 7.407-90.010 21.641l-81.010-134.804c55.592-38.354 90.578-103.435 91.557-174.228-0.978-71.521-35.954-136.704-91.557-175.081l81.021-134.758c27.75 14.154 58.334 21.515 89.998 21.515 94.822 0 175.684-67.083 198.303-160.142zM512.023 214.505c-128.762 0-233.506 104.755-233.506 233.495s104.744 233.495 233.506 233.495c128.74 0 233.483-104.755 233.483-233.495s-104.744-233.495-233.483-233.495zM512.023 617.495c-93.48 0-169.506-76.049-169.506-169.495s76.038-169.495 169.506-169.495c93.446 0 169.483 76.049 169.483 169.495s-76.038 169.495-169.483 169.495z" />
<glyph unicode="&#xe90e;" glyph-name="share-fill" d="M48.538-64c-6.167 0-12.322 1.661-17.772 4.983-10.172 6.201-16.361 17.249-16.361 29.15v955.733c0 11.901 6.201 22.949 16.361 29.15s22.835 6.656 33.417 1.172l926.913-477.867c11.355-5.837 18.489-17.556 18.489-30.322 0-12.777-7.134-24.485-18.489-30.333l-926.913-477.867c-4.915-2.56-10.286-3.8-15.644-3.8z" />
<glyph unicode="&#xe90f;" glyph-name="test" d="M398.916 299.509c-8.954 0-17.647 3.538-24.087 10.001-7.862 7.862-11.389 19.081-9.455 30.049l30.527 173.102c1.206 6.884 4.506 13.244 9.455 18.193l389.154 389.632c25.441 25.486 59.29 39.515 95.278 39.515s69.837-14.029 95.278-39.515c25.441-25.475 39.458-59.358 39.458-95.403-0.011-36.033-14.017-69.905-39.481-95.38l-389.143-389.632c-4.949-4.961-11.275-8.249-18.17-9.466l-172.897-30.572c-1.98-0.341-3.959-0.523-5.916-0.523zM461.119 490.212l-20.196-114.529 114.392 20.218 381.554 382.032c12.584 12.595 19.513 29.343 19.524 47.161 0 17.818-6.918 34.566-19.502 47.161-12.584 12.584-29.309 19.524-47.104 19.524s-34.52-6.94-47.104-19.536l-381.565-382.032zM943.115-29.889v515.652c0 18.83-15.258 34.111-34.065 34.111s-34.065-15.269-34.065-34.111v-481.553h-806.332v807.265h494.911c18.807 0 34.065 15.269 34.065 34.111s-15.258 34.111-34.065 34.111h-528.976c-18.807 0-34.065-15.269-34.065-34.111v-875.463c0-18.853 15.246-34.122 34.065-34.122h874.462c18.807 0 34.065 15.269 34.065 34.111z" />
<glyph unicode="&#xe910;" glyph-name="voice" d="M615.413 284.729c-5.575 0-11.23 1.377-16.464 4.267-16.498 9.125-22.494 29.889-13.358 46.387 18.933 34.258 28.922 73.205 28.922 112.606s-9.99 78.359-28.922 112.606c-9.136 16.498-3.14 37.262 13.358 46.387 16.475 9.102 37.251 3.129 46.364-13.369 24.496-44.339 37.456-94.697 37.456-145.636s-12.959-101.285-37.456-145.636c-6.224-11.253-17.874-17.613-29.901-17.613zM772.733 183.967c52.77 78.12 80.646 169.415 80.646 264.021 0 96.108-28.695 188.598-82.99 267.457-10.672 15.531-31.937 19.456-47.445 8.761-15.519-10.684-19.456-31.949-8.761-47.468 46.421-67.436 70.94-146.523 70.94-228.75 0-80.93-23.836-159.027-68.938-225.803-10.559-15.622-6.44-36.841 9.182-47.4 5.837-3.959 12.481-5.848 19.058-5.848 10.968 0.011 21.732 5.279 28.308 15.030zM895.033 61.69c84.378 112.060 128.967 245.646 128.967 386.31 0 140.641-44.59 274.216-128.922 386.287-11.344 15.053-32.722 18.091-47.787 6.736-15.053-11.332-18.079-32.734-6.736-47.798 75.366-100.147 115.2-219.523 115.2-345.225 0-125.724-39.856-245.111-115.234-345.236-11.332-15.053-8.329-36.454 6.724-47.798 6.155-4.631 13.358-6.872 20.514-6.872 10.354 0 20.56 4.688 27.273 13.596zM490.542-61.497c12.88 5.211 21.322 17.738 21.322 31.63v955.722c0 13.892-8.431 26.419-21.322 31.63-12.868 5.257-27.648 2.116-37.308-7.873l-298.598-308.258h-120.513c-18.842 0-34.122-15.28-34.122-34.133v-318.464c0-18.853 15.28-34.133 34.122-34.133h120.513l298.598-308.247c6.554-6.758 15.44-10.377 24.508-10.377 4.312 0 8.647 0.819 12.8 2.503zM68.255 573.099h100.83c9.239 0 18.079 3.743 24.508 10.377l250.015 258.105v-787.16l-250.015 258.094c-6.428 6.633-15.269 10.377-24.508 10.377h-100.83v250.209z" />
<glyph unicode="&#xe911;" glyph-name="share" d="M48.549-64c-6.167 0-12.322 1.661-17.772 4.983-10.16 6.19-16.361 17.237-16.361 29.15v955.733c0 11.901 6.201 22.949 16.361 29.15s22.824 6.667 33.417 1.183l926.913-477.867c11.355-5.848 18.489-17.556 18.489-30.333s-7.134-24.485-18.489-30.333l-926.913-477.867c-4.927-2.56-10.286-3.8-15.644-3.8zM82.682 869.865v-843.73l818.29 421.865-818.29 421.865z" />
<glyph unicode="&#xe912;" glyph-name="sort-up" d="M977.419 396.425l-435.325 437.828v-898.253h-65.513v897.627l-429.739-437.066-46.842 45.545 509.201 517.894 514.799-517.746z" />
<glyph unicode="&#xe913;" glyph-name="sort-down" d="M980.196 499.575l-435.325-437.828v898.253h-65.513v-897.627l-429.739 437.077-46.842-45.557 509.201-517.894 514.799 517.746z" />
<glyph unicode="&#xe914;" glyph-name="other" d="M136.055 311.012c-75.025 0-136.055 61.030-136.055 136.044s61.030 136.044 136.055 136.044c75.014 0 136.044-61.030 136.044-136.044s-61.030-136.044-136.044-136.044zM136.055 537.759c-50.017 0-90.704-40.687-90.704-90.692s40.687-90.692 90.704-90.692c50.005 0 90.692 40.687 90.692 90.692s-40.687 90.692-90.692 90.692zM511.943 311.012c-75.025 0-136.044 61.030-136.044 136.055 0 75.014 61.019 136.044 136.044 136.044s136.044-61.030 136.044-136.044c0-75.025-61.019-136.055-136.044-136.055zM511.943 537.759c-50.017 0-90.704-40.687-90.704-90.692s40.687-90.692 90.704-90.692 90.704 40.687 90.704 90.692-40.687 90.692-90.704 90.692zM887.956 312.9c-75.014 0-136.044 61.042-136.044 136.055s61.030 136.044 136.044 136.044c75.025 0 136.044-61.030 136.044-136.055 0-75.002-61.019-136.044-136.044-136.044zM887.956 539.648c-50.005 0-90.692-40.687-90.692-90.704 0-50.005 40.687-90.692 90.692-90.692 50.017 0 90.704 40.687 90.704 90.692 0 50.017-40.698 90.704-90.704 90.704z" />
<glyph unicode="&#xe915;" glyph-name="plus" d="M989.867 482.133h-443.733v443.733c0 18.853-15.28 34.133-34.133 34.133s-34.133-15.28-34.133-34.133v-443.733h-443.733c-18.853 0-34.133-15.28-34.133-34.133 0-18.842 15.28-34.133 34.133-34.133h443.733v-443.733c0-18.842 15.28-34.133 34.133-34.133s34.133 15.292 34.133 34.133v443.733h443.733c18.853 0 34.133 15.292 34.133 34.133 0 18.853-15.28 34.133-34.133 34.133z" />
<glyph unicode="&#xe916;" glyph-name="list" d="M989.867 664.155h-955.733c-18.853 0-34.133 15.28-34.133 34.133s15.28 34.133 34.133 34.133h955.733c18.853 0 34.133-15.28 34.133-34.133s-15.28-34.133-34.133-34.133zM1024 448c0 18.853-15.28 34.133-34.133 34.133h-955.733c-18.853 0-34.133-15.28-34.133-34.133s15.28-34.133 34.133-34.133h955.733c18.853 0 34.133 15.28 34.133 34.133zM1024 197.712c0 18.853-15.28 34.133-34.133 34.133h-955.733c-18.853 0-34.133-15.28-34.133-34.133s15.28-34.133 34.133-34.133h955.733c18.853 0 34.133 15.28 34.133 34.133z" />
<glyph unicode="&#xe917;" glyph-name="sort-list" d="M626.085 737.132c0-18.853-15.28-34.133-34.133-34.133h-557.477c-18.853 0-34.133 15.28-34.133 34.133s15.28 34.133 34.133 34.133h557.477c18.864 0 34.133-15.28 34.133-34.133zM591.952 520.977h-557.477c-18.853 0-34.133-15.28-34.133-34.133s15.28-34.133 34.133-34.133h557.477c18.853 0 34.133 15.28 34.133 34.133s-15.269 34.133-34.133 34.133zM591.952 270.689h-557.477c-18.853 0-34.133-15.28-34.133-34.133s15.28-34.133 34.133-34.133h557.477c18.853 0 34.133 15.28 34.133 34.133s-15.269 34.133-34.133 34.133zM1014.682 281.19c-13.141 13.505-34.759 13.813-48.265 0.671l-64.842-63.101v536.417c0 18.853-15.28 34.133-34.133 34.133s-34.133-15.28-34.133-34.133v-536.417l-64.842 63.101c-13.505 13.141-35.123 12.834-48.265-0.671-13.141-13.517-12.846-35.123 0.671-48.265l122.778-119.467c6.622-6.44 15.212-9.671 23.802-9.671s17.18 3.22 23.802 9.671l122.778 119.467c13.494 13.141 13.79 34.748 0.649 48.265z" />
<glyph unicode="&#xe918;" glyph-name="incorrect" d="M898.094 841.216c14.29-14.268 14.29-37.399 0-51.678l-335.849-335.849 335.849-335.872c14.29-14.234 14.29-37.399 0-51.644-14.245-14.279-37.387-14.279-51.632 0l-335.872 335.872-335.849-335.872c-14.268-14.279-37.399-14.279-51.678 0-14.268 14.245-14.279 37.399 0 51.644l335.849 335.872-335.849 335.849c-14.268 14.256-14.279 37.399 0 51.678 14.268 14.268 37.41 14.268 51.678 0l335.849-335.861 335.872 335.861c14.234 14.256 37.387 14.256 51.632 0z" />
<glyph unicode="&#xe919;" glyph-name="answer" d="M990.709 501.885l-103.845 51.928c-22.153 91.568-73 174.581-145.283 236.294-81.249 69.382-184.912 107.577-291.863 107.577-247.99 0-449.718-201.705-449.718-449.661 0-247.979 201.728-449.707 449.707-449.707 106.974 0 210.648 38.207 291.886 107.6 72.272 61.724 123.119 144.737 145.271 236.282l103.845 51.951c20.4 10.206 33.291 31.050 33.291 53.874 0 22.812-12.891 43.668-33.291 53.862zM833.752 382.999c-30.959-184.138-191.090-324.46-384.046-324.46-215.108 0-389.484 174.319-389.484 389.473 0 215.086 174.33 389.45 389.484 389.45 192.91 0 353.087-140.277 384.046-324.437l130.002-65.013-130.002-65.013zM507.415 681.483h-105.017l-143.007-446.578h90.522l31.403 114.665h144.828l31.369-114.665h93.548l-143.644 446.578zM400.6 418.975l13.278 48.868c13.266 46.478 26.533 97.178 38.025 146.045h2.401c13.289-48.265 25.35-99.567 39.242-146.045l13.244-48.868h-106.189z" />
<glyph unicode="&#xe91a;" glyph-name="choice" d="M411.819 273.419l-163.1 188.507 46.49 46.501 116.611-91.17 218.294 192.853 46.501-46.49-264.795-290.202zM1024 448.023c0-22.824-12.891-43.668-33.291-53.862l-103.845-51.951c-22.153-91.557-73-174.569-145.26-236.294-81.249-69.393-184.912-107.6-291.886-107.6-247.99 0-449.718 201.728-449.718 449.707 0 247.956 201.728 449.661 449.707 449.661 106.951 0 210.625-38.195 291.863-107.577 72.294-61.713 123.142-144.725 145.294-236.282l103.845-51.928c20.4-10.206 33.291-31.061 33.291-53.874zM963.755 448.023l-130.002 65.013c-30.948 184.149-191.135 324.426-384.046 324.426-215.154 0-389.484-174.353-389.484-389.45 0-215.154 174.376-389.473 389.484-389.473 192.956 0 353.087 140.322 384.046 324.46l130.002 65.024z" />
<glyph unicode="&#xe91b;" glyph-name="correct" d="M512 891.733c-244.679 0-443.733-199.054-443.733-443.733s199.054-443.733 443.733-443.733 443.733 199.054 443.733 443.733-199.054 443.733-443.733 443.733zM512 960c282.783 0 512-229.228 512-512s-229.217-512-512-512-512 229.228-512 512 229.217 512 512 512v0z" />
<glyph unicode="&#xe91c;" glyph-name="pentagon" d="M759.467-7.111h-494.933c-6.087 0-11.708 3.243-14.768 8.499l-247.467 426.667c-3.072 5.302-3.072 11.833 0 17.135l247.467 426.667c3.061 5.257 8.681 8.499 14.768 8.499h494.933c6.087 0 11.708-3.243 14.768-8.499l247.467-426.667c3.072-5.302 3.072-11.833 0-17.135l-247.467-426.667c-3.061-5.257-8.681-8.499-14.768-8.499zM274.364 27.022h475.261l237.568 409.6-237.568 409.6h-475.261l-237.568-409.6 237.568-409.6z" />
<glyph unicode="&#xe91d;" glyph-name="apple" d="M983.040 207.758c-21.481-36.818-40.152-74.854-64.66-109.249-28.683-39.902-59.711-78.837-94.549-114.005-53.237-53.794-112.538-61.167-183.831-29.321-49.254 22.039-100.739 31.312-154.749 19.763-18.716-4.050-38.229-8.511-55.091-16.816-102.002-49.948-170.871-8.67-228.102 56.661-87.677 100.238-143.508 214.642-157.753 344.018-10.9 98.85 2.344 193.786 78.097 271.485 84.662 86.494 185.196 113.994 304.299 71.373 42.61-15.189 85.584-31.642 132.46-20.946 23.575 5.393 46.672 13.449 69.439 21.515 133.678 47.957 245.476 1.855 318.157-83.41-185.298-104.061-145.92-343.017 36.284-411.068zM882.13 624.959c-65.183 55.046-148.298 70.963-239.684 38.161-34.315-12.106-52.178-17.818-74.047-22.812-47.65-10.889-81.988-4.039-150.050 20.298-2.799 1.013-2.799 1.013-5.586 2.025-101.274 36.181-185.321 15.679-260.631-61.247-59.062-60.575-77.858-135.999-66.594-238.034 12.88-117.066 62.748-224.051 147.775-321.195 57.401-65.536 106.906-81.863 178.551-46.785 18.159 8.92 34.361 13.528 64.728 20.139 60.279 12.891 120.161 4.46 180.349-22.437 57.367-25.6 97.667-19.536 137.409 20.617 30.458 30.788 59.665 66.355 90.249 108.885 12.356 17.374 21.959 33.382 40.357 66.514-165.444 92.956-191.613 314.618-42.826 435.871zM484.295 715.446c118.010-12.607 260.392 147.9 218.385 244.554-125.565-8.784-238.273-131.573-218.385-244.554z" />
<glyph unicode="&#xe91e;" glyph-name="line" d="M812.544 960c116.861-0.171 211.627-95.846 211.456-212.787v-599.802c-0.205-116.827-95.846-211.581-212.821-211.41h-599.768c-116.816 0.159-211.581 95.846-211.41 212.821v599.768c0.171 116.816 95.801 211.536 212.821 211.41h599.723zM212.776 918.858c-94.14 0.114-171.463-76.106-171.634-170.314v-599.723c-0.114-94.197 76.151-171.554 170.314-171.679h599.723c94.185-0.114 171.509 76.151 171.679 170.359v599.711c0.080 94.197-76.151 171.509-170.359 171.645h-599.723zM126.464 489.392c0 178.267 173.875 319.386 383.966 319.386 210.136 0 384.011-141.119 384.011-319.386 0-72.181-27.887-137.114-83.547-198.155-63.818-73.455-221.821-183.603-284.467-209.966-46.945-19.809-87.689 0.444-88.007 45.761 0 5.188 0.478 9.694 1.274 14.757 0.33 1.843 0.33 1.843 0.489 2.685 0.887 5.188 0.887 5.188 2.332 14.108 1.934 11.366 1.934 11.366 2.332 13.778 0.080 0.762 0.205 1.536 0.273 2.253-182.636 25.714-318.657 156.524-318.657 314.778zM510.43 767.636c-189.030 0-342.824-124.826-342.824-278.244 0-137.512 121.97-252.689 286.72-274.512 11.162-2.367 26.362-7.35 30.219-16.862 3.459-8.693 2.241-22.266 1.081-31.027 0 0-4.016-24.201-4.858-29.343-1.525-8.681-6.906-33.906 29.65-18.478 36.614 15.417 197.461 116.258 269.403 199.077 49.664 54.443 73.455 109.75 73.455 171.145 0.011 153.418-153.782 278.244-342.847 278.244zM440.786 563.53h-24.064c-3.652 0-6.667-2.981-6.667-6.679v-149.367c0-3.698 3.015-6.667 6.667-6.667h24.064c3.698 0 6.679 2.97 6.679 6.667v149.367c0 3.709-2.981 6.679-6.679 6.679zM606.31 563.53h-24.030c-3.686 0-6.667-2.981-6.667-6.679v-88.724l-68.471 92.467c-0.171 0.205-0.33 0.432-0.535 0.649l-0.034 0.034c-0.171 0.171-0.239 0.284-0.41 0.444-0.034 0.046-0.080 0.046-0.114 0.080-0.125 0.125-0.239 0.205-0.364 0.319-0.034 0.046-0.125 0.091-0.159 0.125-0.125 0.080-0.239 0.171-0.364 0.239-0.046 0.034-0.125 0.080-0.205 0.125-0.125 0.080-0.239 0.159-0.353 0.205-0.046 0.034-0.125 0.080-0.205 0.114-0.137 0.046-0.239 0.137-0.41 0.171-0.080 0-0.125 0.046-0.205 0.080-0.125 0.046-0.273 0.091-0.398 0.125-0.034 0-0.171 0.046-0.205 0.046-0.171 0.034-0.273 0.080-0.398 0.080-0.080 0.046-0.205 0.046-0.273 0.046-0.137 0.034-0.239 0.034-0.364 0.034-0.080 0.046-0.239 0.046-0.319 0.046s-0.159 0-0.239 0h-24.018c-3.698 0-6.713-2.981-6.713-6.679v-149.367c0-3.698 3.015-6.667 6.713-6.667h24.018c3.698 0 6.679 2.97 6.679 6.667v88.735l68.551-92.592c0.478-0.694 1.047-1.195 1.673-1.65 0 0 0.046-0.046 0.091-0.046 0.125-0.080 0.239-0.159 0.398-0.239 0.080-0.034 0.125-0.080 0.159-0.114 0.125-0.046 0.239-0.125 0.33-0.171 0.159-0.034 0.239-0.080 0.307-0.125 0.091-0.034 0.171-0.080 0.239-0.080 0.159-0.080 0.273-0.125 0.398-0.171 0.091 0 0.091 0 0.171 0 0.478-0.159 1.081-0.239 1.673-0.239h24.030c3.698 0 6.679 2.97 6.679 6.667v149.367c0.023 3.709-2.958 6.679-6.656 6.679zM382.817 438.238h-65.343v118.613c0 3.698-2.981 6.679-6.679 6.679h-24.018c-3.698 0-6.679-2.981-6.679-6.679v-149.367c0-1.809 0.717-3.413 1.855-4.619 0.034-0.034 0.080-0.080 0.080-0.080 0.034-0.046 0.080-0.080 0.125-0.125 1.195-1.126 2.81-1.843 4.619-1.843v0h96.040c3.686 0 6.667 2.97 6.667 6.667v24.075c-0.011 3.664-2.981 6.679-6.667 6.679zM739.123 526.12c3.698 0 6.679 3.015 6.679 6.713v24.018c0 3.698-2.981 6.679-6.679 6.679h-96.074c-1.809 0-3.459-0.717-4.619-1.889-0.034 0-0.034-0.046-0.080-0.046-0.046-0.034-0.091-0.080-0.125-0.125-1.126-1.195-1.855-2.81-1.855-4.619v0-149.367c0-1.809 0.728-3.413 1.855-4.619 0.080-0.034 0.080-0.080 0.125-0.080 0.046-0.046 0.046-0.080 0.125-0.125 1.172-1.126 2.81-1.843 4.574-1.843v0h96.074c3.698 0 6.679 2.97 6.679 6.667v24.075c0 3.652-2.981 6.667-6.679 6.667h-65.331v25.236h65.331c3.698 0 6.679 3.015 6.679 6.679v24.064c0 3.698-2.981 6.667-6.679 6.667h-65.331v25.247h65.331z" />
<glyph unicode="&#xe91f;" glyph-name="android" d="M371.905 730.465c0 17.101 13.881 30.982 30.993 30.982 17.101 0 30.982-13.881 30.982-30.982 0-17.112-13.881-30.982-30.982-30.982-17.124 0.011-30.993 13.87-30.993 30.982zM609.417 699.494c17.101 0 30.982 13.87 30.982 30.982 0 17.101-13.881 30.982-30.982 30.982-17.112 0-30.982-13.881-30.982-30.982 0.011-17.124 13.881-30.982 30.982-30.982zM146.284 593.476c-16.225 0-29.412-13.187-29.412-29.366v-262.201c0-16.179 13.187-29.377 29.412-29.377 16.179 0 29.366 13.198 29.366 29.377v262.201c0 16.179-13.187 29.366-29.366 29.366zM146.284 626.506c34.441 0 62.396-27.91 62.396-62.396v-262.201c0-34.452-27.955-62.407-62.396-62.407-34.486 0-62.441 27.955-62.441 62.407v262.201c0 34.486 27.955 62.396 62.441 62.396v0zM877.75 593.476c-16.179 0-29.366-13.187-29.366-29.366v-262.201c0-16.179 13.187-29.377 29.366-29.377s29.366 13.198 29.366 29.377v262.201c0.011 16.179-13.187 29.366-29.366 29.366zM877.75 626.506c34.486 0 62.396-27.91 62.396-62.396v-262.201c0-34.452-27.91-62.407-62.396-62.407s-62.407 27.955-62.407 62.407v262.201c0 34.486 27.921 62.396 62.407 62.396v0zM755.598 582.747h-498.893v-378.505c0-16.179 13.187-29.366 29.4-29.366h85.641v-176.469c0-16.179 13.187-29.366 29.412-29.366 16.168 0 29.355 13.187 29.4 29.412v176.424h151.222v-176.469c0.034-16.179 13.187-29.366 29.366-29.366 16.213 0 29.4 13.187 29.4 29.366v176.469h85.641c16.225 0 29.4 13.187 29.4 29.366v378.505zM788.639 615.777v-411.534c0-34.327-28.080-62.396-62.441-62.396h-52.599v-143.44c0-34.452-27.955-62.396-62.441-62.396-34.452 0-62.362 27.944-62.396 62.396v143.44h-85.151v-143.44c-0.057-34.463-28.012-62.407-62.453-62.407-34.452 0-62.441 27.944-62.441 62.396v143.44h-52.611c-34.327 0-62.441 28.080-62.441 62.396v411.534l564.975 0.011zM506.186 865.997c-38.719 0-75.878-7.578-110.41-22.517l-7.452-3.22-8.784-4.551c-59.346-30.697-101.945-81.966-116.861-140.663-1.934-7.578-3.391-15.292-4.403-23.029h495.764c-0.694 5.211-1.536 10.331-2.617 15.337-13.107 62.362-56.639 116.543-119.364 148.764l-7.862 4.028-8.42 3.63c-34.315 14.768-71.179 22.221-109.591 22.221zM681.381 960c1.627 0 3.265-0.41 4.801-1.217 4.938-2.697 6.747-8.818 4.073-13.756l-43.122-79.497c70.11-36.022 121.173-98.020 136.59-171.236 1.775-8.283 3.072-16.714 3.88-25.225v-30.094h-563.735c-0.137 2.822-0.216 5.689-0.216 8.556 0 19.115 2.423 37.751 6.975 55.671 17.545 69.052 66.924 127.306 133.723 161.883l-43.327 79.94c-2.651 4.938-0.842 11.059 4.073 13.756 1.547 0.808 3.197 1.217 4.813 1.217 3.63 0 7.1-1.946 8.954-5.336l43.816-80.828c37.308 16.134 79.223 25.213 123.506 25.213 43.884 0 85.527-8.954 122.584-24.895l43.657 80.509c1.866 3.391 5.359 5.336 8.954 5.336v0z" />
<glyph unicode="&#xe920;" glyph-name="dictionary" d="M809.21 72.533h-584.511c-18.853 0-34.133 15.28-34.133 34.133s15.28 34.133 34.133 34.133h584.511c18.853 0 34.133-15.28 34.133-34.133s-15.28-34.133-34.133-34.133zM771.903 891.733h-582.087c-37.649 0-68.267-30.618-68.267-68.267v-580.346c28.547 21.47 64.011 34.213 102.4 34.213h547.954v614.4zM840.169 960v-750.933h-616.22c-56.559 0-102.4-45.841-102.4-102.4s45.841-102.4 102.4-102.4h678.514v853.402c0 18.853 15.28 34.133 34.133 34.133s34.133-15.28 34.133-34.133v-887.535c0-17.431-13.107-31.642-29.98-33.712v-0.421c0 0-38.377 0-113.778 0h-637.156c-75.401 0-136.533 61.133-136.533 136.533v750.933c0 75.401 61.133 136.533 136.533 136.533h637.156c4.449 0 8.852 0 13.198 0v0z" />
<glyph unicode="&#xe921;" glyph-name="function" d="M984.61 737.064h-695.945c-21.766 0-39.39 17.624-39.39 39.39 0 21.754 17.636 39.39 39.39 39.39h695.945c21.754 0 39.39-17.636 39.39-39.39 0-21.766-17.636-39.39-39.39-39.39zM1024 448.831c0 21.754-17.636 39.39-39.39 39.39h-695.945c-21.766 0-39.39-17.636-39.39-39.39s17.636-39.39 39.39-39.39h695.945c21.754 0 39.39 17.636 39.39 39.39zM1024 119.876c0 21.754-17.636 39.39-39.39 39.39h-695.945c-21.766 0-39.39-17.636-39.39-39.39s17.636-39.39 39.39-39.39h695.945c21.754 0 39.39 17.636 39.39 39.39zM8.647 668.979h135.794v41.62h-38.707v173.329h-37.854c-15.030-9.25-30.060-15.019-53.157-19.354v-31.778h39.572v-122.197h-45.648v-41.62zM3.311 339.319h149.083v43.349h-39.572c-9.546 0-24.292-1.434-34.987-2.901 32.95 33.246 64.728 73.967 64.728 110.945 0 41.028-28.911 67.63-70.497 67.63-30.618 0-50.267-10.98-71.35-33.246l28.001-27.728c10.138 10.98 21.675 20.799 36.42 20.799 17.033 0 28.035-10.684 28.035-30.333 0-31.209-36.136-70.224-89.862-119.057v-29.457zM73.66 12.072c42.78 0 79.451 22.517 79.451 62.68 0 27.739-17.624 45.079-41.597 52.292v1.468c23.108 9.227 34.668 25.975 34.668 47.366 0 38.411-29.184 59.233-73.682 59.233-25.418 0-46.797-9.819-66.731-26.59l26.010-31.505c13.005 11.287 23.973 17.931 38.411 17.931 15.906 0 24.576-8.112 24.576-22.824 0-17.055-11.571-28.319-48.265-28.319v-36.136c45.079 0 54.909-10.98 54.909-29.468 0-16.179-13.005-24.53-32.927-24.53-16.771 0-31.801 8.351-44.806 20.787l-23.677-32.358c15.599-18.204 39.572-30.026 73.66-30.026z" />
<glyph unicode="&#xe922;" glyph-name="lecture" d="M989.867 834.856h-60.37v34.111c0 18.853-15.28 34.133-34.133 34.133l-389.052 0.011c-0.034 0-0.080-0.011-0.114-0.011l-377.549 0.011c-9.057 0-17.738-3.595-24.132-10.001s-10.001-15.076-10.001-24.132v-34.111h-60.382c-18.853 0-34.133-15.28-34.133-34.133v-773.7c0-18.853 15.28-34.133 34.133-34.133l955.733-0.011c9.057 0 17.738 3.595 24.132 10.001s10.001 15.076 10.001 24.132v773.7c0 18.853-15.28 34.133-34.133 34.133zM540.444 834.844l320.785-0.011v-671.3l-320.785 0.011v671.3zM162.782 834.844l309.396-0.011v-671.278l-309.396-0.011v671.3zM955.733 61.156l-887.467 0.011v705.434h26.249v-637.19c0-9.057 3.595-17.738 10.001-24.132s15.076-10.001 24.132-10.001l377.549 0.011c0.034 0 0.080-0.011 0.114-0.011l389.052-0.011c9.057 0 17.738 3.595 24.132 10.001s10.001 15.076 10.001 24.132v637.19h26.237v-705.434zM435.2 671.232c0-18.853-15.28-34.133-34.133-34.133h-172.874c-18.853 0-34.133 15.28-34.133 34.133s15.28 34.133 34.133 34.133h172.874c18.853 0 34.133-15.28 34.133-34.133zM435.2 499.189c0-18.853-15.28-34.133-34.133-34.133h-172.874c-18.853 0-34.133 15.28-34.133 34.133s15.28 34.133 34.133 34.133h172.874c18.853 0 34.133-15.28 34.133-34.133zM435.2 327.145c0-18.853-15.28-34.133-34.133-34.133h-172.874c-18.853 0-34.133 15.28-34.133 34.133s15.28 34.133 34.133 34.133h172.874c18.853 0 34.133-15.28 34.133-34.133zM818.563 671.232c0-18.853-15.28-34.133-34.133-34.133h-172.874c-18.853 0-34.133 15.28-34.133 34.133s15.28 34.133 34.133 34.133h172.874c18.864 0 34.133-15.28 34.133-34.133zM818.563 499.189c0-18.853-15.28-34.133-34.133-34.133h-172.874c-18.853 0-34.133 15.28-34.133 34.133s15.28 34.133 34.133 34.133h172.874c18.864 0 34.133-15.28 34.133-34.133zM818.563 327.145c0-18.853-15.28-34.133-34.133-34.133h-172.874c-18.853 0-34.133 15.28-34.133 34.133s15.28 34.133 34.133 34.133h172.874c18.864 0 34.133-15.28 34.133-34.133z" />
<glyph unicode="&#xe923;" glyph-name="news" d="M1023.317 648.135c-0.307 1.536-0.842 2.981-1.343 4.437-0.228 0.649-0.341 1.308-0.614 1.934-0.694 1.661-1.582 3.186-2.503 4.699-0.239 0.375-0.387 0.785-0.637 1.161-1.252 1.877-2.685 3.618-4.278 5.211l-284.365 284.376c-1.582 1.593-3.334 3.026-5.2 4.278-0.375 0.239-0.774 0.398-1.161 0.637-1.513 0.922-3.049 1.809-4.71 2.503-0.626 0.262-1.286 0.387-1.934 0.614-1.445 0.501-2.89 1.035-4.426 1.343-2.196 0.432-4.46 0.671-6.747 0.671h-671.266c-18.853 0-34.133-15.28-34.133-34.133v-955.733c0-18.853 15.28-34.133 34.133-34.133h955.733c18.853 0 34.133 15.28 34.133 34.133v671.255c0 2.287-0.239 4.54-0.683 6.747zM739.533 843.457l167.936-167.936h-167.936v167.936zM68.267 4.267v887.467h602.999v-250.345c0-18.853 15.292-34.133 34.133-34.133h250.334v-602.988h-887.467zM853.379 516.255c0-18.853-15.292-34.133-34.133-34.133h-603.045c-18.853 0-34.133 15.28-34.133 34.133s15.28 34.133 34.133 34.133h603.034c18.853 0 34.145-15.28 34.145-34.133zM853.379 334.211c0-18.853-15.292-34.133-34.133-34.133h-603.045c-18.853 0-34.133 15.28-34.133 34.133s15.28 34.133 34.133 34.133h603.034c18.853 0 34.145-15.28 34.145-34.133zM853.379 152.178c0-18.853-15.292-34.133-34.133-34.133h-603.045c-18.853 0-34.133 15.28-34.133 34.133s15.28 34.133 34.133 34.133h603.034c18.853 0 34.145-15.28 34.145-34.133z" />
<glyph unicode="&#xe924;" glyph-name="process" d="M158.595 78.37l54.147 74.877c-75.196 76.436-121.719 181.396-121.719 297.097 0 21.663 1.65 42.94 4.79 63.738l-87.438 28.547c-5.393-29.958-8.374-60.757-8.374-92.285 0-146.341 60.939-278.3 158.595-371.974zM580.267 867.601c133.166-21.914 245.43-106.803 305.539-223.118l87.802 28.649c-73.227 152.849-219.523 263.578-393.341 286.868v-92.399zM138.183 644.471c60.109 116.326 172.385 201.216 305.55 223.13v92.399c-173.818-23.29-320.114-134.019-393.341-286.891l87.791-28.638zM700.848 72.556c-56.832-28.797-120.969-45.113-188.848-45.113s-132.016 16.316-188.848 45.113l-54.238-74.98c72.329-39.265 155.113-61.577 243.086-61.577s170.758 22.312 243.075 61.577l-54.226 74.98zM928.188 514.094c3.14-20.799 4.79-42.086 4.79-63.75 0-115.701-46.524-220.672-121.719-297.097l54.147-74.877c97.655 93.673 158.595 225.633 158.595 371.974 0 31.528-2.981 62.339-8.374 92.285l-87.438-28.535z" />
<glyph unicode="&#xe925;" glyph-name="spec" d="M939.281 858.92h-295.424c-15.735 58.14-68.801 101.080-131.857 101.080s-116.122-42.94-131.857-101.080h-295.424c-18.876 0-34.179-15.303-34.179-34.19v-854.539c0-18.887 15.303-34.19 34.179-34.19h854.551c18.876 0 34.179 15.303 34.179 34.19v854.539c0.011 18.887-15.292 34.19-34.167 34.19zM512 891.642c37.695 0 68.369-30.663 68.369-68.369s-30.674-68.358-68.369-68.358-68.369 30.663-68.369 68.369 30.674 68.358 68.369 68.358zM512 686.558c64.102 0 117.874 44.373 132.597 104.004h89.577v-170.849h-444.348v170.837h89.577c14.723-59.62 68.494-103.993 132.597-103.993zM905.091 4.369h-786.182v786.182h102.548v-205.028c0-18.887 15.303-34.19 34.179-34.19h512.728c18.876 0 34.179 15.303 34.179 34.19v205.028h102.548v-786.182z" />
<glyph unicode="&#xe926;" glyph-name="case" d="M512 311.467c-6.235 0-12.47 1.695-17.966 5.109l-477.867 295.799c-10.138 6.281-16.259 17.397-16.168 29.321 0.102 11.924 6.417 22.938 16.68 29.036l477.867 284.467c10.752 6.394 24.155 6.394 34.907 0l477.867-284.467c10.251-6.098 16.577-17.112 16.68-29.036 0.102-11.935-6.019-23.040-16.168-29.321l-477.867-295.799c-5.495-3.413-11.73-5.109-17.966-5.109zM99.92 640.831l412.080-255.090 412.092 255.090-412.092 245.316-412.080-245.316zM529.977 128.842l477.867 295.799c16.020 9.921 20.981 30.959 11.059 46.99s-30.948 20.981-46.99 11.059l-459.913-284.683-459.89 284.683c-16.031 9.921-37.069 4.983-46.99-11.059s-4.972-37.069 11.059-46.99l477.867-295.799c5.495-3.413 11.73-5.109 17.966-5.109s12.459 1.695 17.966 5.109zM529.977-58.891l477.867 295.799c16.020 9.921 20.981 30.959 11.059 46.99s-30.948 20.992-46.99 11.059l-459.913-284.683-459.89 284.683c-16.031 9.933-37.069 4.983-46.99-11.059s-4.972-37.069 11.059-46.99l477.867-295.799c5.495-3.413 11.73-5.109 17.954-5.109s12.47 1.695 17.977 5.109z" />
<glyph unicode="&#xe927;" glyph-name="design" d="M80.942-20.093c-9.739 0-19.183 3.846-26.192 10.855-8.545 8.545-12.391 20.719-10.286 32.62l33.189 187.997c1.308 7.487 4.904 14.382 10.286 19.741l642.067 642.032c27.671 27.682 64.467 42.929 103.596 42.929s75.925-15.246 103.584-42.906c27.682-27.682 42.906-64.456 42.906-103.596 0-39.129-15.246-75.925-42.906-103.596l-642.044-642.044c-5.37-5.382-12.265-8.966-19.752-10.286l-188.008-33.178c-2.139-0.387-4.301-0.569-6.44-0.569zM148.584 187.008l-21.971-124.383 124.395 21.959 633.795 633.795c13.676 13.676 21.22 31.87 21.22 51.201 0 19.354-7.544 37.536-21.22 51.212s-31.87 21.22-51.201 21.22-37.536-7.544-51.212-21.22l-633.806-633.783zM512.006 188.442l241.587-241.576c14.461-14.461 37.9-14.473 52.372-0.011l207.203 207.192c14.461 14.461 14.461 37.923-0.011 52.384l-241.576 241.576-52.384-52.384 215.384-215.395-154.796-154.808-53.442 53.442 26.169 26.169c9.648 9.648 9.648 25.293 0 34.93-9.637 9.637-25.282 9.637-34.919-0.011l-26.158-26.181-42.428 42.428 78.564 78.542c9.648 9.648 9.648 25.293 0 34.942-9.648 9.637-25.282 9.637-34.919-0.011l-78.553-78.553-50.359 49.96-51.735-52.634zM304.791 500.412l-42.417 42.428 26.181 26.169c9.648 9.648 9.648 25.282 0.011 34.907-9.648 9.648-25.304 9.648-34.942 0l-26.158-26.169-42.405 42.417 78.553 78.553c9.648 9.648 9.648 25.282 0 34.907-9.648 9.648-25.27 9.648-34.919 0l-78.564-78.53-60.701 60.678 154.808 154.819 215.395-215.418 52.384 52.384-241.587 241.587c-14.473 14.473-37.911 14.473-52.384 0l-207.192-207.18c-14.461-14.461-14.461-37.911 0-52.384l241.576-241.576z" />
<glyph unicode="&#xe928;" glyph-name="codebot-icon" d="M489.354 404.029c0 158.326-108.396 286.689-242.12 286.689-133.714 0-242.115-128.364-242.115-286.689 0-15.278 1.044-30.259 2.98-44.892 2.79-160.225 165.868-391.997 165.868-391.997s-17.572 93.030 2.053 162.826c22.523-8.166 46.428-12.605 71.219-12.605 133.719 0 242.115 128.348 242.115 286.669zM703.601 502.543c0-37.953-30.767-68.721-68.721-68.721s-68.721 30.767-68.721 68.721c0 37.953 30.767 68.721 68.721 68.721s68.721-30.767 68.721-68.721zM1014.226 849.48c-23.050-18.248-63.478-19.185-87.286-12.134 48.067 16.282 78.858 46.607 91.94 91.52-33.802-32.154-98.488-31.452-130.381-30.449-31.892 0.993-73.267 10.47-141.957-16.701-45.307-17.946-83.983-61.45-104.98-88.586h-0.005c-28.38 6.799-58.004 10.404-88.484 10.404-92.293 0-176.86-33.050-242.458-87.926l0.077-0.087c38.4-10.552 73.708-30.464 104.054-57.559 40.54 24.397 88.008 38.472 138.767 38.472 148.844 0 269.517-120.678 269.517-269.512s-120.668-269.527-269.517-269.527c-38.912 0-75.853 8.315-109.261 23.148-26.004-30.92-57.339-55.788-92.268-72.499l-0.23-0.358c58.271-36.721 127.309-57.974 201.318-57.974 208.563 0 377.646 168.745 377.646 376.924 0 100.352-39.311 191.539-103.383 259.072 10.87-2.028 22.129-3.144 33.69-3.144 70.113 0 129.618 39.378 150.994 94.060-23.014-14.423-68.27-18.156-96.753-4.9 50.719 7.567 82.442 24.986 98.959 77.757z" />
<glyph unicode="&#xe929;" glyph-name="point" d="M512 891.733c-244.679 0-443.733-199.054-443.733-443.733s199.054-443.733 443.733-443.733 443.733 199.054 443.733 443.733-199.054 443.733-443.733 443.733zM512 960c282.783 0 512-229.228 512-512s-229.217-512-512-512-512 229.228-512 512 229.217 512 512 512v0zM512 779.981c-183.057 0-331.981-148.924-331.981-331.981s148.924-331.981 331.981-331.981 331.981 148.924 331.981 331.981-148.924 331.981-331.981 331.981zM512 831.044c211.558 0 383.056-171.486 383.056-383.044s-171.497-383.044-383.056-383.044c-211.558 0-383.056 171.486-383.056 383.044s171.497 383.044 383.056 383.044v0zM383.977 657.34h137.489c92.797 0 164.079-32.245 164.079-131.265 0-95.607-71.862-138.627-161.815-138.627h-56.024v-148.799h-83.729v418.691zM518.064 453.655c57.708 0 85.436 24.337 85.436 72.42 0 48.663-30.561 65.070-88.257 65.070h-47.536v-137.489h50.358z" />
<glyph unicode="&#xe92a;" glyph-name="connection" d="M904.966 566.989c-33.064 0-62.976-13.517-84.56-35.282l-582.872 226.691c0.307 3.482 0.535 6.975 0.535 10.536 0 65.741-53.305 119.034-119.034 119.034-65.741-0.011-119.034-53.294-119.034-119.034s53.294-119.034 119.034-119.034c38.525 0 72.67 18.364 94.424 46.751l575.158-223.687c-1.741-8.067-2.685-16.418-2.685-25.008s0.944-16.93 2.685-25.008l-575.101-223.676c-21.754 28.433-55.922 46.831-94.481 46.831-65.741 0-119.034-53.282-119.034-119.034 0-65.729 53.294-119.034 119.034-119.034 65.729 0 119.034 53.305 119.034 119.034 0 3.527-0.228 6.997-0.535 10.433l582.872 226.679c21.572-21.766 51.473-35.282 84.56-35.282 65.729 0.011 119.034 53.316 119.034 119.057s-53.305 119.034-119.034 119.034z" />
<glyph unicode="&#xe92b;" glyph-name="facebook-fill" d="M927.994 960h-832c-52.804 0-96.006-43.201-96.006-96.006v-832c0-52.804 43.201-96.006 96.006-96.006h416.006v448h-128v128h128v64c0 105.802 86.198 192 192 192h128v-128h-128c-35.203 0-64-28.797-64-64v-64h192l-31.994-128h-160.006v-447.989h287.994c52.804 0 96.006 43.201 96.006 96.006v832c0 52.793-43.201 95.994-96.006 95.994z" />
<glyph unicode="&#xe92c;" glyph-name="facebook" d="M910.302-64h-275.74c-12.038 0-21.788 9.751-21.788 21.788v428.931c0 12.038 9.751 21.788 21.788 21.788h136.181l19.74 78.973h-155.921c-12.038 0-21.788 9.751-21.788 21.788v61.281c0 45.796 37.262 83.058 83.069 83.058h100.762v78.973h-100.762c-89.361 0-162.042-72.693-162.042-162.042v-61.281c0-12.038-9.751-21.788-21.788-21.788h-100.762v-78.973h100.75c12.038 0 21.788-9.751 21.788-21.788v-428.931c0-12.038-9.751-21.788-21.788-21.788h-398.302c-62.692 0-113.698 51.007-113.698 113.698v796.604c0 62.692 51.007 113.698 113.698 113.698h796.604c62.692 0 113.698-51.007 113.698-113.698v-796.604c0-62.68-51.007-113.687-113.698-113.687zM656.35-20.423h253.952c38.662 0 70.121 31.46 70.121 70.121v796.604c0 38.662-31.46 70.133-70.121 70.133h-796.604c-38.662 0-70.133-31.46-70.133-70.133v-796.604c0-38.662 31.46-70.121 70.133-70.121h376.513v385.354h-100.762c-12.026 0-21.788 9.751-21.788 21.788v122.55c0 12.038 9.751 21.788 21.788 21.788h100.762v39.492c0 113.38 92.228 205.619 205.619 205.619h122.55c12.038 0 21.788-9.751 21.788-21.788v-122.55c0-12.026-9.751-21.788-21.788-21.788h-122.55c-21.777 0-39.492-17.715-39.492-39.492v-39.492h162.031c6.724 0 13.039-3.095 17.18-8.374 4.119-5.291 5.586-12.186 3.971-18.694l-30.64-122.561c-2.423-9.694-11.139-16.498-21.129-16.498h-131.402v-385.354z" />
<glyph unicode="&#xe92d;" glyph-name="google-fill" d="M927.994 960h-832c-52.804 0-96.006-43.201-96.006-96.006v-832c0-52.804 43.201-96.006 96.006-96.006h832c52.804 0 96.006 43.201 96.006 96.006v832c0 52.804-43.201 96.006-96.006 96.006zM519.6 64c-212.196 0-384 171.804-384 384s171.804 384 384 384c103.595 0 190.396-37.797 257.195-100.398l-104.198-100.398c-28.604 27.398-78.404 59.199-152.997 59.199-131.197 0-238-108.601-238-242.404s106.997-242.404 238-242.404c151.996 0 208.998 109.204 217.805 165.604h-217.805v131.595h362.598c3.197-19.206 5.996-38.4 5.996-63.602 0.205-219.398-146.796-375.194-368.594-375.194v0z" />
<glyph unicode="&#xe92e;" glyph-name="google" d="M910.302-64h-796.604c-62.692 0-113.698 51.007-113.698 113.698v796.604c0 62.692 51.007 113.698 113.698 113.698h796.604c62.692 0 113.698-51.007 113.698-113.698v-796.604c0-62.692-51.007-113.698-113.698-113.698zM113.698 916.423c-38.662 0-70.133-31.46-70.133-70.133v-796.604c0-38.662 31.46-70.121 70.133-70.121h796.604c38.662 0 70.121 31.46 70.121 70.121v796.604c0 38.662-31.46 70.133-70.121 70.133h-796.604zM519.282 58.55c-214.744 0-389.45 174.694-389.45 389.45 0 214.744 174.706 389.45 389.45 389.45 99.624 0 189.929-35.271 261.143-102.013 4.369-4.085 6.861-9.774 6.895-15.747s-2.378-11.696-6.679-15.849l-99.772-96.131c-8.408-8.101-21.743-8.124-30.185-0.034-24.098 23.097-66.469 50.631-131.413 50.631-113.641 0-206.086-94.345-206.086-210.295s92.444-210.295 206.086-210.295c110.376 0 162.35 65.445 180.361 114.972h-180.349c-12.038 0-21.788 9.751-21.788 21.788v125.998c0 12.038 9.751 21.788 21.788 21.788h347.17c10.661 0 19.74-7.703 21.493-18.204 3.061-18.341 6.042-38.423 6.042-64.478 0.102-107.952-36.443-205.13-102.901-273.567-68.267-70.303-162.247-107.463-271.804-107.463zM519.282 793.873c-190.714 0-345.873-155.159-345.873-345.873s155.159-345.862 345.873-345.862c97.496 0 180.668 32.575 240.538 94.231 59.358 61.121 90.681 145.226 90.59 243.189 0 14.859-1.092 27.409-2.651 39.128h-306.677v-82.432h186.743c6.36 0 12.413-2.788 16.555-7.623 4.13-4.836 5.951-11.241 4.983-17.522-9.557-61.224-69.928-176.981-230.070-176.981-137.671 0-249.663 113.88-249.663 253.861s111.991 253.872 249.663 253.872c66.879 0 114.517-24.201 145.738-48.936l68.346 65.855c-60.097 49.22-133.632 75.093-214.096 75.093z" />
<glyph unicode="&#xe92f;" glyph-name="help" d="M512 891.733c-244.679 0-443.733-199.043-443.733-443.733 0-244.668 199.054-443.733 443.733-443.733s443.733 199.066 443.733 443.733c0 244.69-199.054 443.733-443.733 443.733zM512 960c282.783 0 512-229.217 512-512 0-282.761-229.217-512-512-512s-512 229.239-512 512c0 282.783 229.217 512 512 512v0zM547.908 338.58h-76.971c-0.216 11.071-0.307 17.818-0.307 20.218 0 24.951 4.119 45.488 12.379 61.577 8.26 16.111 24.758 34.224 49.516 54.329 24.747 20.139 39.538 33.314 44.362 39.561 7.441 9.842 11.162 20.708 11.162 32.597 0 16.486-6.588 30.618-19.763 42.405-13.187 11.776-30.948 17.67-53.282 17.67-21.538 0-39.549-6.155-54.033-18.421s-24.439-30.982-29.878-56.138l-77.881 9.648c2.207 36.022 17.556 66.617 46.034 91.773 28.467 25.156 65.843 37.729 112.128 37.729 48.697 0 87.438-12.732 116.213-38.195 28.774-25.441 43.167-55.091 43.167-88.883 0-18.716-5.291-36.42-15.849-53.134-10.57-16.691-33.155-39.447-67.766-68.198-17.909-14.916-29.036-26.863-33.36-35.931-4.312-9.057-6.269-25.247-5.871-48.606zM470.949 224.484v84.821h84.81v-84.821h-84.81z" />
<glyph unicode="&#xe930;" glyph-name="invitation" d="M830.51 344.292c-106.689 0-193.49-86.801-193.49-193.49s86.801-193.49 193.49-193.49 193.49 86.801 193.49 193.49-86.801 193.49-193.49 193.49zM830.51 10.9c-77.141 0-139.913 62.76-139.913 139.901s62.771 139.901 139.913 139.901c77.13 0 139.901-62.76 139.901-139.901s-62.771-139.901-139.901-139.901zM922.783 149.857c0-14.78-12.026-26.795-26.795-26.795h-38.684v-37.74c0-14.78-12.015-26.783-26.783-26.783s-26.795 12.015-26.795 26.783v37.729h-38.684c-14.78 0-26.783 12.026-26.783 26.795s12.015 26.783 26.783 26.783h38.684v39.64c0 14.768 12.026 26.783 26.795 26.783s26.783-12.026 26.783-26.783v-39.64h38.684c14.78 0.011 26.795-12.004 26.795-26.772zM799.38 361.586c-55.023 56.604-128.068 96.859-214.79 116.611 71.851 43.452 119.899 122.334 119.899 212.423 0 137-111.058 248.070-248.070 248.070-136.988 0-248.047-111.070-248.047-248.070 0-90.089 48.048-168.971 119.91-212.423-200.681-45.716-328.283-201.023-328.283-414.948 0-16.43 13.323-29.764 29.764-29.764s29.764 13.335 29.764 29.764c0 220.945 159.505 369.402 396.891 369.402 112.697 0 207.792-33.508 276.639-92.285 20.434 10.536 42.758 17.761 66.321 21.22zM267.913 690.62c0 103.959 84.582 188.53 188.507 188.53 103.959 0 188.53-84.582 188.53-188.53s-84.582-188.518-188.53-188.518c-103.936 0-188.507 84.571-188.507 188.518z" />
<glyph unicode="&#xe931;" glyph-name="profile2" d="M992.006-64h-960.011c-17.67 0-31.994 14.325-31.994 31.994v960.011c0 17.67 14.325 31.994 31.994 31.994h960c17.681 0 32.006-14.325 32.006-31.994v-960c0-17.681-14.325-32.006-31.994-32.006zM64 0h896v896h-896v-896zM623.878 428.066c36.090 31.721 56.923 77.187 56.923 126.475 0 93.093-75.719 168.823-168.801 168.823s-168.801-75.73-168.801-168.823c0-49.289 20.833-94.754 56.923-126.475-116.008-38.059-186.789-136.988-186.789-264.488 0-18.079 14.7-32.779 32.768-32.779 18.079 0 32.779 14.7 32.779 32.779 0 129.183 93.685 215.973 233.119 215.973s233.119-86.801 233.119-215.973c0-18.079 14.7-32.779 32.779-32.779 18.068 0 32.768 14.7 32.768 32.779 0 127.499-70.781 226.429-186.789 264.488zM512 657.818c56.946 0 103.265-46.33 103.265-103.276 0-56.934-46.319-103.253-103.265-103.253s-103.265 46.319-103.265 103.253c0 56.946 46.319 103.276 103.265 103.276z" />
<glyph unicode="&#xe932;" glyph-name="slack-fill" d="M1016.116 426.929c-20.195 45.202-73.247 65.488-118.472 45.293l-43.12-19.341-110.61 247.205 43.165 19.273c45.191 20.263 65.442 73.27 45.225 118.472-20.195 45.225-73.213 65.51-118.437 45.259l-43.12-19.307-19.296 43.188c-20.229 45.191-73.247 65.419-118.437 45.191-45.225-20.195-65.442-73.179-45.259-118.437l19.307-43.154-247.217-110.576-19.273 43.154c-20.229 45.282-73.247 65.419-118.437 45.282-45.225-20.229-65.419-73.247-45.259-118.472l19.296-43.097-43.12-19.364c-45.191-20.229-65.453-73.179-45.225-118.403 20.161-45.202 73.247-65.453 118.437-45.259l43.154 19.33 110.507-247.228-43.154-19.307c-45.191-20.183-65.419-73.27-45.225-118.426 20.229-45.225 73.247-65.488 118.437-45.282l43.131 19.296 19.307-43.154c20.229-45.225 73.247-65.453 118.472-45.225 45.156 20.183 65.419 73.213 45.191 118.392l-19.239 43.188 247.205 110.519 19.273-42.995c20.217-45.316 73.213-65.579 118.426-45.338 45.236 20.149 65.488 73.213 45.27 118.46l-19.307 43.086 43.097 19.375c45.282 20.229 65.533 73.213 45.304 118.403zM443.634 269.127l-110.576 247.262 247.205 110.519 110.576-247.205-247.205-110.576z" />
<glyph unicode="&#xe933;" glyph-name="slack" d="M456.738-64.011c-42.394 0-80.976 24.997-98.281 63.704l-9.591 21.436-21.402-9.58c-13.949-6.235-28.695-9.375-43.861-9.375-42.405 0-80.998 25.008-98.315 63.75-11.73 26.226-12.538 55.444-2.298 82.295 10.251 26.886 30.356 48.139 56.593 59.87l21.436 9.591-88.030 196.927-21.424-9.603c-13.949-6.235-28.706-9.387-43.884-9.387-42.439 0-81.033 25.008-98.315 63.727-24.212 54.113 0.148 117.874 54.295 142.12l21.402 9.614-9.58 21.39c-24.178 54.238 0.193 118.022 54.318 142.222 13.972 6.224 28.718 9.375 43.873 9.375 42.428 0 81.010-25.020 98.304-63.727l9.569-21.424 196.904 88.075-9.58 21.424c-24.189 54.226 0.182 118.010 54.329 142.188 13.938 6.235 28.718 9.398 43.907 9.398 42.382 0 80.953-24.986 98.247-63.67l9.603-21.458 21.39 9.58c13.972 6.246 28.74 9.421 43.941 9.421 42.394 0 80.964-25.020 98.27-63.75 24.223-54.113-0.137-117.908-54.283-142.188l-21.458-9.58 88.098-196.881 21.402 9.591c13.972 6.235 28.706 9.398 43.873 9.398 42.428 0 81.055-25.020 98.372-63.75 11.719-26.237 12.561-55.455 2.287-82.284-10.263-26.852-30.413-48.117-56.707-59.847l-21.356-9.614 9.591-21.39c11.742-26.328 12.561-55.626 2.253-82.5-10.263-26.829-30.379-48.060-56.616-59.745-13.938-6.224-28.695-9.398-43.873-9.398v0c-42.405 0-80.976 25.065-98.281 63.841l-9.535 21.265-196.972-88.053 9.58-21.47c11.719-26.214 12.55-55.444 2.287-82.284-10.24-26.84-30.345-48.094-56.57-59.824-13.926-6.258-28.706-9.421-43.907-9.421zM359.868 71.68c2.628 0 5.268-0.478 7.771-1.434 5.404-2.059 9.751-6.178 12.117-11.457l18.489-41.335c10.308-23.017 33.269-37.911 58.505-37.911 9.011 0 17.818 1.889 26.135 5.621 15.61 6.963 27.557 19.615 33.655 35.578 6.098 15.974 5.609 33.394-1.377 48.993l-18.443 41.381c-4.892 10.991 0.034 23.848 11.002 28.763l236.692 105.813c10.957 4.892 23.859 0 28.774-10.98l18.455-41.165c10.32-23.131 33.28-38.059 58.505-38.059v0c9.011 0 17.783 1.9 26.089 5.609 15.644 6.963 27.602 19.581 33.712 35.544 6.11 15.997 5.643 33.439-1.354 49.095l-18.478 41.233c-4.927 10.98-0.023 23.859 10.945 28.786l41.267 18.557c15.735 7.009 27.739 19.661 33.826 35.635 6.11 15.952 5.621 33.348-1.354 48.936-10.297 23.074-33.314 37.968-58.573 37.968-9.011 0-17.772-1.889-26.101-5.586l-41.244-18.5c-5.268-2.378-11.264-2.537-16.668-0.478-5.404 2.071-9.762 6.178-12.117 11.457l-105.927 236.681c-2.378 5.291-2.549 11.287-0.489 16.691s6.19 9.751 11.469 12.117l41.335 18.455c32.21 14.438 46.706 52.417 32.302 84.628-10.308 23.063-33.269 37.956-58.493 37.956-9.023 0-17.806-1.889-26.135-5.621l-41.29-18.489c-5.268-2.355-11.264-2.526-16.68-0.466-5.393 2.059-9.751 6.178-12.106 11.457l-18.489 41.347c-10.297 23.017-33.246 37.888-58.482 37.888-9.011 0-17.795-1.889-26.123-5.609-32.233-14.393-46.74-52.361-32.336-84.628l18.466-41.301c2.367-5.268 2.537-11.264 0.478-16.668-2.071-5.404-6.19-9.751-11.469-12.117l-236.681-105.859c-5.279-2.367-11.275-2.526-16.668-0.466-5.404 2.059-9.762 6.19-12.117 11.469l-18.455 41.313c-10.297 23.040-33.257 37.922-58.516 37.922-9.011 0-17.795-1.889-26.112-5.586-32.188-14.393-46.694-52.372-32.302-84.651l18.466-41.222c4.915-10.98 0.011-23.848-10.957-28.774l-41.279-18.546c-32.256-14.438-46.751-52.383-32.347-84.594 10.286-23.051 33.257-37.934 58.527-37.934 9.011 0 17.783 1.889 26.089 5.598l41.313 18.5c5.279 2.355 11.287 2.526 16.668 0.478 5.404-2.059 9.762-6.178 12.117-11.457l105.813-236.715c4.915-10.991-0.011-23.882-10.991-28.774l-41.324-18.489c-15.61-6.975-27.557-19.627-33.667-35.624-6.098-15.986-5.621-33.382 1.365-48.993 10.308-23.040 33.291-37.956 58.539-37.956 9 0 17.772 1.889 26.078 5.598l41.279 18.466c2.822 1.286 5.86 1.911 8.897 1.911zM446.532 254.93c-2.628 0-5.268 0.478-7.771 1.445-5.404 2.059-9.762 6.178-12.117 11.457l-105.882 236.737c-2.367 5.268-2.526 11.275-0.466 16.668 2.059 5.404 6.178 9.751 11.457 12.106l236.692 105.813c11.025 4.904 23.882-0.023 28.774-10.991l105.87-236.692c4.927-10.98 0-23.871-10.991-28.774l-236.681-105.87c-2.81-1.263-5.837-1.9-8.886-1.9zM369.448 502.465l88.087-196.961 196.904 88.075-88.064 196.915-196.927-88.030z" />
<glyph unicode="&#xe934;" glyph-name="team" d="M615.196 333.278c38.753 31.334 61.326 78.063 61.326 128.922 0 91.602-74.513 166.104-166.093 166.104s-166.093-74.502-166.093-166.104c0-50.859 22.562-97.587 61.326-128.922-119.091-36.159-192.080-135.703-192.080-264.715 0-16.065 13.062-29.138 29.127-29.138s29.127 13.062 29.127 29.138c0 132.38 95.881 221.321 238.592 221.321s238.569-88.94 238.569-221.321c0-16.065 13.062-29.138 29.138-29.138s29.138 13.062 29.138 29.138c-0.011 129.001-73 228.557-192.080 264.715zM510.43 570.061c59.46 0 107.839-48.378 107.839-107.85 0-59.46-48.378-107.839-107.839-107.839-59.472 0-107.85 48.378-107.85 107.839 0 59.472 48.378 107.85 107.85 107.85zM270.791 856.565c-83.775 0-151.939-68.153-151.939-151.939 0-45.932 20.105-88.178 54.716-116.827-107.668-33.405-173.568-123.915-173.568-241.027 0-15.121 12.311-27.432 27.432-27.432s27.432 12.311 27.432 27.432c0 119.774 86.778 200.26 215.939 200.26 16.703 0 33.314-1.434 49.368-4.255l7.179-1.263 3.664 6.315c5.7 9.808 12.516 19.206 20.241 27.898l0.148 0.102 0.876 1.047c9.933 10.957 20.946 20.48 32.757 28.297l1.274 0.831 0.967 1.183c22.869 27.284 35.453 61.895 35.453 97.451 0.011 83.775-68.142 151.927-151.939 151.927zM270.791 801.701c53.544 0 97.098-43.543 97.098-97.075 0-53.544-43.554-97.087-97.098-97.087-53.532 0-97.087 43.543-97.087 97.087 0.011 53.532 43.554 97.075 97.087 97.075zM850.421 587.799c34.623 28.649 54.716 70.884 54.716 116.827 0 83.786-68.153 151.939-151.939 151.939s-151.939-68.153-151.939-151.939c0-38.912 14.746-75.947 41.518-104.277l0.614-0.66 0.717-0.535c7.589-5.678 14.131-11.355 20.002-17.374l0.671-0.694 0.159-0.102 4.619-5.2c7.862-8.852 14.802-18.466 20.617-28.547l3.698-6.417 7.282 1.365c17.146 3.209 34.657 4.836 52.053 4.836 129.161 0 215.939-80.475 215.939-200.26 0-15.121 12.311-27.432 27.443-27.432 15.11 0 27.42 12.311 27.42 27.432-0.011 117.123-65.923 207.633-173.591 241.038zM753.198 801.701c53.532 0 97.087-43.543 97.087-97.075 0-53.544-43.554-97.087-97.087-97.087s-97.087 43.543-97.087 97.087c0 53.532 43.554 97.075 97.087 97.075z" />
<glyph unicode="&#xe935;" glyph-name="twitter-fill" d="M1024 765.542c-37.604-16.805-78.188-27.989-120.582-32.996 43.383 25.998 76.584 67.186 92.376 116.178-40.585-23.996-85.572-41.597-133.37-50.984-38.4 40.789-92.991 66.185-153.372 66.185-115.974 0-209.954-93.98-209.954-209.954 0-16.395 1.798-32.393 5.404-47.798-174.569 8.795-329.341 92.388-432.913 219.557-18-30.993-28.399-67.186-28.399-105.586 0-72.784 36.989-137.17 93.389-174.763-34.395 1.001-66.788 10.604-95.186 26.203 0-0.796 0-1.798 0-2.606 0-101.774 72.385-186.766 168.562-205.961-17.59-4.801-36.193-7.396-55.387-7.396-13.596 0-26.59 1.399-39.595 3.8 26.795-83.388 104.38-144.179 196.164-145.977-71.987-56.388-162.372-89.975-260.949-89.975-16.998 0-33.599 1.001-50.187 3.004 93.173-59.79 203.56-94.39 322.128-94.39 386.321 0 597.686 320.148 597.686 597.686 0 9.193-0.205 18.193-0.603 27.193 41.006 29.389 76.595 66.378 104.789 108.578z" />
<glyph unicode="&#xe936;" glyph-name="twitter" d="M330.217 27.989c-113.812 0-224.529 32.449-320.193 93.821-8.545 5.484-12.174 16.156-8.738 25.714s12.993 15.531 23.108 14.256c15.167-1.82 30.026-2.708 45.443-2.708 68.415 0 133.814 17.601 191.841 51.302-70.178 20.264-127.454 74.263-150.551 146.159-2.344 7.316-0.683 15.303 4.38 21.060 3.675 4.176 8.761 6.736 14.143 7.293-55.080 41.062-90.021 106.758-90.021 178.961v2.492c0 7.703 4.062 14.825 10.695 18.751 6.633 3.914 14.848 4.039 21.584 0.33 3.231-1.775 6.519-3.459 9.83-5.018-25.941 36.955-40.391 81.522-40.391 128.171 0 39.344 10.422 78.074 30.128 112.037 3.595 6.19 9.99 10.206 17.124 10.775 7.111 0.592 14.086-2.412 18.603-7.953 92.57-113.664 226.85-185.651 371.689-200.181-0.705 7.236-1.047 14.575-1.047 21.959 0 122.857 99.954 222.811 222.811 222.811 57.219 0 112.629-22.232 153.919-61.383 38.332 8.761 75.139 23.461 109.534 43.804 7.794 4.619 17.624 3.925 24.701-1.741 7.054-5.643 9.899-15.087 7.122-23.7-7.623-23.677-19.092-45.693-33.758-65.308 10.581 3.618 20.969 7.691 31.141 12.242 8.841 3.959 19.274 1.57 25.52-5.848 6.269-7.418 6.872-18.091 1.479-26.158-26.51-39.674-58.869-74.126-96.267-102.559 0.125-5.074 0.193-10.172 0.193-15.326 0.023-292.011-222.185-594.057-594.022-594.057zM110.421 117.362c68.983-30.128 143.644-45.796 219.796-45.796 344.565 0 550.468 279.882 550.468 550.468 0 8.476-0.182 16.771-0.558 25.065-0.319 7.35 3.083 14.382 9.068 18.682 17.419 12.481 33.678 26.385 48.697 41.609-15.906-3.777-32.119-6.645-48.572-8.579-10.206-1.24-19.854 4.881-23.177 14.609-3.311 9.717 0.614 20.434 9.421 25.725 19.263 11.548 36.033 26.453 49.584 43.861-23.791-9.387-48.321-16.577-73.432-21.515-7.327-1.468-14.928 0.99-20.070 6.44-33.803 35.908-81.545 56.513-130.992 56.513-98.827 0-179.234-80.395-179.234-179.234 0-14.017 1.547-27.75 4.597-40.801 1.57-6.656-0.114-13.665-4.494-18.921-4.38-5.245-11.002-8.192-17.818-7.794-156.001 7.862-302.842 77.494-407.962 192.364-7.134-19.615-10.832-40.437-10.832-61.474 0-60.143 29.798-115.928 79.701-149.208 8.078-5.393 11.617-15.485 8.681-24.735-2.958-9.262-11.639-15.713-21.39-15.167-22.232 0.66-44.487 4.79-65.798 12.151 13.016-71.1 68.301-129.115 140.948-143.61 9.921-1.968 17.169-10.513 17.522-20.617 0.353-10.092-6.292-19.115-16.043-21.766-20.161-5.495-41.097-7.987-62.077-7.828 30.595-55.273 88.758-91.307 153.634-92.581 9.216-0.182 17.317-6.133 20.241-14.882s0.023-18.375-7.225-24.053c-65.081-51.007-141.392-81.362-222.686-88.929z" />
<glyph unicode="&#xe937;" glyph-name="reception" d="M492.897 361.745c5.052-5.074 11.935-7.942 19.103-7.942s14.052 2.867 19.103 7.942l197.461 198.576c7.68 7.714 9.956 19.297 5.78 29.343-4.176 10.058-13.995 16.6-24.883 16.6h-77.687l13.335 215.916c0.466 7.418-2.162 14.7-7.259 20.116-5.097 5.427-12.197 8.499-19.638 8.499h-212.446c-7.43 0-14.529-3.072-19.627-8.499-5.097-5.416-7.726-12.698-7.27-20.116l13.346-215.916h-77.699c-10.889 0-20.708-6.542-24.883-16.6-4.187-10.047-1.9-21.629 5.78-29.343l197.484-198.576zM420.887 552.368c7.43 0 14.541 3.083 19.638 8.499s7.726 12.698 7.259 20.116l-13.346 215.916h155.125l-13.335-215.916c-0.466-7.418 2.162-14.7 7.27-20.116 5.086-5.416 12.197-8.499 19.627-8.499h41.552l-132.676-133.416-132.676 133.416h41.563zM1024 307.405c0 0.228-0.057 0.421-0.068 0.649-0.023 0.853-0.159 1.684-0.25 2.537-0.125 1.013-0.228 2.014-0.444 2.981-0.182 0.74-0.444 1.445-0.683 2.15-0.33 1.035-0.671 2.048-1.138 3.015-0.307 0.671-0.683 1.286-1.035 1.934-0.546 0.944-1.104 1.855-1.741 2.731-0.193 0.25-0.319 0.546-0.523 0.796l-146 183.216c-5.109 6.417-12.868 10.16-21.072 10.16h-109.477c-14.882 0-26.943-12.060-26.943-26.943s12.072-26.954 26.943-26.954h96.495l103.049-129.331h-231.652c-9.956 0-19.092-5.473-23.768-14.256l-16.953-31.755h-313.492l-16.953 31.767c-4.688 8.772-13.824 14.245-23.768 14.245h-231.652l103.060 129.331h96.495c14.882 0 26.943 12.072 26.943 26.954s-12.060 26.943-26.943 26.943h-109.477c-8.203 0-15.963-3.732-21.083-10.16l-146-183.228c-0.205-0.25-0.319-0.546-0.501-0.796-0.649-0.876-1.206-1.786-1.741-2.731-0.375-0.649-0.74-1.263-1.058-1.934-0.455-0.967-0.785-1.98-1.126-3.004-0.239-0.717-0.489-1.422-0.683-2.162-0.216-0.967-0.319-1.968-0.444-2.981-0.102-0.842-0.239-1.673-0.262-2.537 0-0.216-0.057-0.421-0.057-0.637 0-0.819 0.171-1.604 0.239-2.412 0.057-0.66 0-1.308 0.114-1.968l38.753-235.247c2.139-13.028 13.403-22.562 26.59-22.562h892.609c13.198 0 24.439 9.546 26.601 22.562l38.741 235.247c0.102 0.66 0.057 1.308 0.114 1.968 0.068 0.808 0.239 1.582 0.239 2.412zM935.435 99.1h-846.871l-29.867 181.35h239.673l16.964-31.755c4.688-8.772 13.824-14.256 23.768-14.256h345.805c9.956 0 19.092 5.473 23.78 14.256l16.942 31.755h239.673l-29.867-181.35z" />
<glyph unicode="&#xe938;" glyph-name="send" d="M1015.342 870.73c-6.19 4.676-14.37 5.689-21.493 2.731l-980.434-407.916c-8.124-3.379-13.414-11.321-13.414-20.127 0-8.795 5.302-16.737 13.426-20.105l300.396-124.791 59.676-262.679c1.855-8.169 8.238-14.552 16.407-16.43 1.616-0.353 3.243-0.546 4.847-0.546 6.554 0 12.868 2.981 17.055 8.238l137.83 173.477 356.807-148.241c6.372-2.651 13.551-2.139 19.456 1.331 5.916 3.482 9.819 9.535 10.593 16.361l87.131 776.772 0.239 2.025c0.876 7.68-2.355 15.258-8.522 19.9zM505.469 220.9l-53.692-67.561 23.984 79.906 29.707-12.345zM779.958 645.154l-336.191-365.761c-2.128-2.378-3.709-5.2-4.642-8.272l-40.676-135.521-39.231 172.646 420.739 336.907zM970.115 784.077l-75.708-674.918-394.172 163.726 469.879 511.192zM859.489 767.761l-529.624-424.118-245.043 101.797 774.667 322.321z" />
<glyph unicode="&#xe939;" glyph-name="check" d="M0 488.459c0 8.658 3.265 17.306 9.819 23.95 13.232 13.437 34.839 13.585 48.265 0.353l323.015-313.537 584.806 569.754c13.426 13.232 35.044 13.073 48.265-0.353 13.244-13.414 13.062-35.032-0.353-48.265l-608.757-593.351c-13.289-13.096-34.623-13.096-47.912 0l-346.965 337.135c-6.781 6.679-10.183 15.497-10.183 24.314z" />
<glyph unicode="&#xe93a;" glyph-name="hand-up" d="M950.488 531.74c0 1.809-0.148 3.595-0.421 5.348-3.709 49.414-44.351 87.506-94.322 87.506-17.431 0-33.724-4.642-47.707-12.777-16.919 25.953-46.217 43.145-79.428 43.145-23.074 0-44.271-8.294-60.712-22.073-16.464 13.778-37.649 22.073-60.746 22.073-9.227 0-18.159-1.354-26.624-3.857v211.069c-0.011 53.953-44.282 97.826-98.679 97.826s-98.679-43.873-98.679-97.826v-377.936c-44.203 26.67-103.401 62.316-121.583 73.023-33.018 19.467-63.795 29.321-91.443 29.321-32.188 0-59.494-13.995-76.891-39.424-19.046-27.819-41.335-83.968 23.177-147.445 35.419-34.85 115.12-108.476 172.214-160.905-24.576-2.708-43.839-23.37-43.839-48.663v-204.948c0-27.136 22.062-49.209 49.198-49.209h607.278c27.125 0 49.186 22.073 49.186 49.209v204.959c0 27.136-22.062 49.209-49.186 49.209h-10.843c28.308 42.359 60.029 99.055 60.029 140.561v151.814zM882.438 4.039h-569.572v167.287h569.583v-167.287zM388.813 239.366c-37.945 34.657-176.174 161.178-224.654 208.862-30.97 30.47-24.269 46.592-14.746 60.496 3.493 5.097 8.397 9.796 20.73 9.796 14.905 0 35.112-7.054 56.912-19.9 29.218-17.215 171.122-102.923 172.555-103.788 10.513-6.326 23.62-6.531 34.315-0.489 10.684 6.019 17.306 17.351 17.306 29.628v438.204c0 16.418 13.733 29.776 30.618 29.776s30.618-13.358 30.618-29.776v-301.193c0-18.705 15.098-33.894 33.815-34.020 0.068 0 0.148 0 0.216 0 18.614 0 33.781 14.962 34.020 33.587 0.182 14.541 12.117 26.374 26.624 26.374 14.734 0 26.726-11.992 26.726-26.715 0-18.785 15.223-34.020 34.020-34.020 18.785 0 34.020 15.235 34.020 34.020 0 14.723 11.969 26.715 26.692 26.715s26.704-11.992 26.704-26.715v-28.467c0-18.796 15.235-34.020 34.020-34.020h5.905c18.364 0 33.428 14.586 33.997 32.95 0.444 14.507 12.095 25.862 26.522 25.862s26.078-11.355 26.544-25.873c0.023-0.808 0.080-1.616 0.159-2.389v-148.355c0-29.321-41.37-95.528-75.571-140.561h-418.065z" />
<glyph unicode="&#xe93b;" glyph-name="home" d="M814.057-18.489h-194.674c-18.853 0-34.133 15.28-34.133 34.133v236.089h-146.5v-236.089c0-18.853-15.28-34.133-34.133-34.133h-194.674c-18.853 0-34.133 15.28-34.133 34.133v398.222h-141.676c-14.12 0-26.783 8.693-31.858 21.857-5.063 13.164-1.513 28.114 8.954 37.592l477.867 432.344c13.005 11.765 32.802 11.765 45.796 0l477.867-432.344c10.468-9.478 14.017-24.417 8.954-37.592-5.063-13.164-17.727-21.857-31.846-21.857h-141.676v-398.222c0-18.853-15.28-34.133-34.133-34.133zM653.517 49.778h126.407v398.222c0 18.842 15.28 34.133 34.133 34.133h87.211l-389.268 352.188-389.268-352.188h87.211c18.853 0 34.133-15.292 34.133-34.133v-398.222h126.407v236.089c0 18.853 15.28 34.133 34.133 34.133h214.756c18.853 0 34.133-15.28 34.133-34.133v-236.089z" />
<glyph unicode="&#xe93c;" glyph-name="mail" d="M1024 789.333c0 0.558-0.148 1.081-0.171 1.627-0.057 1.206-0.182 2.401-0.353 3.595-0.171 1.070-0.375 2.116-0.637 3.14-0.273 1.092-0.614 2.139-0.99 3.197-0.387 1.081-0.819 2.116-1.308 3.129-0.444 0.956-0.956 1.877-1.513 2.788-0.626 1.047-1.297 2.048-2.037 3.015-0.319 0.444-0.558 0.933-0.91 1.354-0.319 0.387-0.717 0.671-1.058 1.035-0.808 0.887-1.661 1.718-2.571 2.526-0.808 0.705-1.616 1.399-2.458 2.025-0.91 0.671-1.855 1.252-2.822 1.832-0.944 0.558-1.889 1.092-2.879 1.559s-2.014 0.842-3.061 1.217c-1.070 0.364-2.116 0.717-3.186 0.99-1.035 0.25-2.082 0.432-3.14 0.592-1.195 0.182-2.378 0.307-3.584 0.364-0.489 0.023-0.956 0.148-1.456 0.148h-955.733c-0.489 0-0.944-0.125-1.434-0.148-1.217-0.057-2.435-0.193-3.641-0.364-1.058-0.159-2.094-0.33-3.106-0.592-1.081-0.262-2.139-0.603-3.197-0.99-1.047-0.375-2.082-0.751-3.083-1.217-0.978-0.455-1.911-0.99-2.844-1.547-0.978-0.592-1.934-1.183-2.844-1.855-0.842-0.614-1.65-1.297-2.435-2.002-0.91-0.808-1.775-1.638-2.594-2.537-0.33-0.364-0.728-0.649-1.058-1.035-0.353-0.421-0.592-0.91-0.91-1.354-0.728-0.967-1.411-1.968-2.037-3.015-0.558-0.91-1.070-1.832-1.513-2.788-0.489-1.024-0.922-2.059-1.308-3.129-0.375-1.058-0.705-2.116-0.99-3.197-0.25-1.035-0.466-2.082-0.637-3.14-0.182-1.195-0.296-2.389-0.353-3.595 0-0.546-0.148-1.070-0.148-1.627v-682.667c0-0.057 0.011-0.114 0.011-0.182 0.023-2.014 0.239-4.028 0.614-6.007 0.239-1.343 0.671-2.606 1.058-3.88 0.33-1.047 0.558-2.116 0.978-3.129 0.751-1.786 1.707-3.482 2.742-5.097 0.159-0.239 0.25-0.523 0.41-0.762 1.263-1.877 2.731-3.607 4.335-5.188 0.034-0.034 0.057-0.080 0.091-0.114 0.489-0.478 1.047-0.796 1.559-1.24 1.138-1.001 2.264-2.002 3.538-2.844 0.922-0.614 1.911-1.047 2.879-1.57 0.978-0.512 1.923-1.104 2.947-1.525 1.195-0.489 2.435-0.785 3.652-1.138 0.899-0.25 1.752-0.603 2.674-0.785 2.185-0.432 4.415-0.671 6.645-0.671h955.733c2.23 0 4.46 0.239 6.645 0.671 0.956 0.193 1.832 0.546 2.765 0.808 1.195 0.341 2.401 0.637 3.561 1.115 1.058 0.432 2.014 1.024 3.015 1.559 0.944 0.512 1.923 0.933 2.822 1.536 1.274 0.842 2.412 1.855 3.55 2.856 0.501 0.432 1.058 0.762 1.536 1.229 0.034 0.034 0.057 0.080 0.091 0.114 1.604 1.582 3.072 3.311 4.335 5.188 0.159 0.239 0.25 0.523 0.41 0.762 1.035 1.627 1.991 3.311 2.742 5.097 0.421 1.024 0.649 2.094 0.978 3.129 0.387 1.274 0.808 2.537 1.058 3.88 0.364 1.991 0.592 4.005 0.614 6.007 0 0.068 0.011 0.125 0.011 0.182v682.667zM68.267 716.459l284.058-236.726-284.058-289.53v526.256zM512 435.541l-383.59 319.659h767.181l-383.59-319.659zM404.946 435.894l85.197-70.997c6.337-5.291 14.086-7.919 21.857-7.919s15.519 2.628 21.857 7.908l85.197 70.997 289.508-295.083h-793.122l289.508 295.094zM671.676 479.733l284.058 236.726v-526.256l-284.058 289.53z" />
<glyph unicode="&#xe93d;" glyph-name="image" d="M989.867 33.963h-955.733c-18.853 0-34.133 15.28-34.133 34.133v140.368c0 6.281 1.729 12.447 5.006 17.795l294.070 481.212c5.814 9.512 15.906 15.588 27.045 16.27 11.059 0.774 21.891-4.119 28.82-12.857l297.188-374.727h57.879l257.752 219.136c10.138 8.613 24.36 10.57 36.432 4.972 12.072-5.586 19.809-17.692 19.809-30.982v-461.187c0-18.853-15.28-34.133-34.133-34.133zM68.267 102.229h887.467v353.223l-211.069-179.428c-6.178-5.245-14.006-8.124-22.107-8.124h-86.926c-10.422 0-20.264 4.756-26.749 12.925l-277.049 349.343-263.566-431.297v-96.643zM773.689 562.836c-82.489 0-149.595 67.106-149.595 149.595s67.106 149.606 149.595 149.606 149.595-67.106 149.595-149.595-67.106-149.606-149.595-149.606zM773.689 793.771c-44.84 0-81.328-36.489-81.328-81.328s36.489-81.328 81.328-81.328 81.328 36.489 81.328 81.328-36.489 81.328-81.328 81.328z" />
<glyph unicode="&#xe93e;" glyph-name="video" d="M641.855 82.796h-497.983c-79.326 0-143.872 64.546-143.872 143.872v442.664c0 79.337 64.546 143.872 143.872 143.872h497.994c79.326 0 143.872-64.535 143.872-143.872v-60.837l182.989 163.078c9.762 8.715 23.745 10.866 35.681 5.507 11.901-5.348 19.593-17.203 19.593-30.276v-597.595c0-13.073-7.691-24.94-19.615-30.288-11.947-5.359-25.919-3.197-35.681 5.507l-182.977 163.078v-60.837c0-79.326-64.546-143.872-143.872-143.872zM143.872 746.803c-42.712 0-77.471-34.759-77.471-77.471v-442.664c0-42.712 34.759-77.471 77.471-77.471h497.994c42.712 0 77.471 34.759 77.471 77.471v134.895c0 13.073 7.691 24.94 19.627 30.288 11.924 5.382 25.896 3.197 35.669-5.507l182.989-163.078v449.468l-183.012-163.089c-9.751-8.715-23.723-10.866-35.669-5.495-11.935 5.348-19.627 17.215-19.627 30.288v134.895c0 42.712-34.759 77.471-77.471 77.471h-497.971z" />
<glyph unicode="&#xe956;" glyph-name="display" d="M0 896v-640h1024v640h-1024zM960 320h-896v512h896v-512zM672 192h-320l-32-128-64-64h512l-64 64z" />
<glyph unicode="&#xe957;" glyph-name="laptop" d="M896 256v512c0 35.2-28.8 64-64 64h-640c-35.2 0-64-28.8-64-64v-512h-128v-192h1024v192h-128zM640 128h-256v64h256v-64zM832 256h-640v511.886c0.034 0.040 0.076 0.082 0.114 0.114h639.77c0.040-0.034 0.082-0.076 0.116-0.116v-511.884z" />
<glyph unicode="&#xe958;" glyph-name="mobile" d="M736 960h-448c-52.8 0-96-43.2-96-96v-832c0-52.8 43.2-96 96-96h448c52.8 0 96 43.2 96 96v832c0 52.8-43.2 96-96 96zM384 912h256v-32h-256v32zM512 0c-35.346 0-64 28.654-64 64s28.654 64 64 64 64-28.654 64-64-28.654-64-64-64zM768 192h-512v640h512v-640z" />
<glyph unicode="&#xe959;" glyph-name="mobile2" d="M768 960h-576c-35.2 0-64-28.798-64-64v-896c0-35.2 28.798-64 64-64h576c35.2 0 64 28.8 64 64v896c0 35.202-28.8 64-64 64zM480-17.782c-27.492 0-49.782 22.29-49.782 49.782s22.29 49.782 49.782 49.782 49.782-22.29 49.782-49.782-22.29-49.782-49.782-49.782zM768 128h-576v704h576v-704z" />
<glyph unicode="&#xe95a;" glyph-name="tablet" d="M800 960h-640c-52.8 0-96-43.2-96-96v-832c0-52.8 43.2-96 96-96h640c52.8 0 96 43.2 96 96v832c0 52.8-43.2 96-96 96zM480-32c-17.672 0-32 14.326-32 32s14.328 32 32 32 32-14.326 32-32-14.328-32-32-32zM768 64h-576v768h576v-768z" />
</font>
</defs>
</svg>
